<svg width="26" height="26" viewBox="0 0 26 26" fill="none" xmlns="http://www.w3.org/2000/svg">
<path d="M11.7199 13.7793C11.6208 13.6811 11.5422 13.5641 11.4885 13.4353C11.4348 13.3065 11.4072 13.1683 11.4072 13.0288C11.4072 12.8892 11.4348 12.751 11.4885 12.6222C11.5422 12.4934 11.6208 12.3765 11.7199 12.2782L16.5722 7.43648C16.6713 7.33821 16.7499 7.22129 16.8036 7.09246C16.8572 6.96364 16.8849 6.82547 16.8849 6.68591C16.8849 6.54635 16.8572 6.40818 16.8036 6.27936C16.7499 6.15054 16.6713 6.03361 16.5722 5.93534C16.3741 5.73845 16.1062 5.62793 15.8269 5.62793C15.5476 5.62793 15.2797 5.73845 15.0816 5.93534L10.2293 10.7876C9.63541 11.3823 9.30182 12.1883 9.30182 13.0288C9.30182 13.8692 9.63541 14.6753 10.2293 15.2699L15.0816 20.1222C15.2785 20.3175 15.5443 20.4276 15.8216 20.4288C15.9607 20.4296 16.0986 20.4029 16.2274 20.3503C16.3562 20.2977 16.4734 20.2202 16.5722 20.1222C16.6713 20.0239 16.7499 19.907 16.8036 19.7782C16.8572 19.6494 16.8849 19.5112 16.8849 19.3716C16.8849 19.2321 16.8572 19.0939 16.8036 18.9651C16.7499 18.8362 16.6713 18.7193 16.5722 18.6211L11.7199 13.7793Z" fill="#374957"/>
</svg>
