<svg width="9" height="16" viewBox="0 0 9 16" fill="none" xmlns="http://www.w3.org/2000/svg">
<path d="M7.39409 5.78763L2.5418 0.935339C2.34373 0.738445 2.07579 0.62793 1.79651 0.62793C1.51723 0.62793 1.2493 0.738445 1.05123 0.935339C0.952142 1.03361 0.873497 1.15054 0.819827 1.27936C0.766158 1.40818 0.738525 1.54636 0.738525 1.68591C0.738525 1.82547 0.766158 1.96364 0.819827 2.09246C0.873497 2.22129 0.952142 2.33821 1.05123 2.43648L5.91409 7.2782C6.01317 7.37647 6.09181 7.49339 6.14548 7.62222C6.19915 7.75104 6.22679 7.88921 6.22679 8.02877C6.22679 8.16832 6.19915 8.3065 6.14548 8.43532C6.09181 8.56414 6.01317 8.68107 5.91409 8.77934L1.05123 13.6211C0.852163 13.8187 0.739773 14.0874 0.738781 14.3679C0.73779 14.6484 0.84828 14.9178 1.04594 15.1169C1.2436 15.316 1.51225 15.4284 1.79278 15.4294C2.0733 15.4304 2.34274 15.3199 2.5418 15.1222L7.39409 10.2699C7.98799 9.67527 8.32158 8.8692 8.32158 8.02877C8.32158 7.18834 7.98799 6.38227 7.39409 5.78763V5.78763Z" fill="#374957"/>
</svg>
