<svg width="8" height="16" viewBox="0 0 8 16" fill="none" xmlns="http://www.w3.org/2000/svg">
<path d="M2.71989 8.77934C2.6208 8.68106 2.54216 8.56414 2.48849 8.43532C2.43482 8.3065 2.40718 8.16832 2.40718 8.02877C2.40718 7.88921 2.43482 7.75104 2.48849 7.62221C2.54216 7.49339 2.6208 7.37647 2.71989 7.2782L7.57217 2.43648C7.67126 2.33821 7.7499 2.22129 7.80357 2.09246C7.85724 1.96364 7.88487 1.82547 7.88487 1.68591C7.88487 1.54635 7.85724 1.40818 7.80357 1.27936C7.7499 1.15054 7.67126 1.03361 7.57217 0.935339C7.3741 0.738445 7.10617 0.62793 6.82689 0.62793C6.5476 0.62793 6.27967 0.738445 6.0816 0.935339L1.22931 5.78762C0.635408 6.38227 0.301819 7.18834 0.301819 8.02877C0.301819 8.8692 0.635408 9.67527 1.22931 10.2699L6.0816 15.1222C6.2785 15.3175 6.54427 15.4276 6.8216 15.4288C6.96073 15.4296 7.09864 15.4029 7.22744 15.3503C7.35624 15.2977 7.47339 15.2202 7.57217 15.1222C7.67126 15.0239 7.7499 14.907 7.80357 14.7782C7.85724 14.6494 7.88487 14.5112 7.88487 14.3716C7.88487 14.2321 7.85724 14.0939 7.80357 13.9651C7.7499 13.8362 7.67126 13.7193 7.57217 13.6211L2.71989 8.77934Z" fill="white"/>
</svg>
