<svg width="21" height="21" viewBox="0 0 21 21" fill="none" xmlns="http://www.w3.org/2000/svg">
<g clip-path="url(#clip0_458_32287)">
<path fill-rule="evenodd" clip-rule="evenodd" d="M20.6221 18.1943C19.9739 20.1641 17.4343 21.1469 15.6199 20.9831C13.1419 20.7591 10.4455 19.4445 8.39872 17.9969C5.39012 15.8689 2.57192 12.5775 0.929718 9.08454C-0.230882 6.61634 -0.491282 3.58114 1.23492 1.33134C1.87332 0.499741 2.56492 0.0559409 3.60092 0.00414091C5.04012 -0.0658591 5.24172 0.757341 5.73592 2.03974C6.10412 2.99874 6.59552 3.97734 6.86992 4.97134C7.38372 6.82634 5.58752 6.90334 5.36072 8.41954C5.22072 9.37574 6.37852 10.6581 6.90212 11.3399C7.91136 12.6678 9.14745 13.8067 10.5533 14.7041C11.3513 15.2067 12.6365 16.1125 13.5493 15.6127C14.9549 14.8427 14.8233 12.4725 16.7875 13.2747C17.8053 13.6891 18.7909 14.2869 19.7625 14.8105C21.2647 15.6183 21.1947 16.4555 20.6221 18.1943C21.0505 16.8951 20.1937 19.4935 20.6221 18.1943Z" fill="#297C59"/>
</g>
<defs>
<clipPath id="clip0_458_32287">
<rect width="21" height="21" fill="white"/>
</clipPath>
</defs>
</svg>
