<svg width="667" height="597" viewBox="0 0 667 597" fill="none" xmlns="http://www.w3.org/2000/svg">
<ellipse cx="366" cy="298.5" rx="300" ry="298.5" fill="url(#paint0_linear_216_16296)" fill-opacity="0.8"/>
<path d="M53.9424 272.643H49.2517V267.826H47.3755V272.643H42.6848V274.569H47.3755V279.386H49.2517V274.569H53.9424V272.643Z" fill="#414042"/>
<path d="M637.927 79.4963H633.236V74.6797H631.36V79.4963H626.669V81.4229H631.36V86.2396H633.236V81.4229H637.927V79.4963Z" fill="#414042"/>
<path d="M67.5452 257.711C66.2464 257.711 64.9768 257.316 63.8968 256.575C62.8169 255.834 61.9752 254.781 61.4782 253.548C60.9812 252.316 60.8511 250.96 61.1045 249.652C61.3579 248.344 61.9833 247.143 62.9017 246.2C63.8201 245.257 64.9902 244.614 66.2641 244.354C67.5379 244.094 68.8583 244.228 70.0582 244.738C71.2582 245.248 72.2838 246.113 73.0054 247.222C73.727 248.33 74.1121 249.634 74.1121 250.968C74.1121 252.756 73.4202 254.471 72.1887 255.736C70.9572 257.001 69.2869 257.711 67.5452 257.711ZM67.5452 246.151C66.6175 246.151 65.7106 246.434 64.9392 246.963C64.1679 247.492 63.5666 248.245 63.2116 249.125C62.8566 250.005 62.7637 250.973 62.9447 251.908C63.1257 252.842 63.5724 253.7 64.2284 254.374C64.8844 255.047 65.7202 255.506 66.6301 255.692C67.54 255.878 68.4831 255.782 69.3402 255.418C70.1973 255.053 70.9299 254.436 71.4453 253.644C71.9607 252.852 72.2358 251.921 72.2358 250.968C72.2358 249.69 71.7417 248.465 70.862 247.562C69.9823 246.659 68.7892 246.151 67.5452 246.151Z" fill="#414042"/>
<path d="M632.298 388.241C630.999 388.241 629.73 387.846 628.65 387.105C627.57 386.364 626.728 385.311 626.231 384.078C625.734 382.846 625.604 381.49 625.857 380.182C626.111 378.874 626.736 377.673 627.655 376.73C628.573 375.787 629.743 375.144 631.017 374.884C632.291 374.624 633.611 374.758 634.811 375.268C636.011 375.778 637.037 376.643 637.758 377.752C638.48 378.86 638.865 380.164 638.865 381.498C638.865 383.286 638.173 385.001 636.942 386.266C635.71 387.531 634.04 388.241 632.298 388.241ZM632.298 376.681C631.37 376.681 630.463 376.964 629.692 377.493C628.921 378.022 628.32 378.775 627.965 379.655C627.609 380.535 627.517 381.503 627.698 382.438C627.879 383.372 628.325 384.23 628.981 384.904C629.637 385.577 630.473 386.036 631.383 386.222C632.293 386.408 633.236 386.312 634.093 385.948C634.95 385.583 635.683 384.966 636.198 384.174C636.714 383.382 636.989 382.451 636.989 381.498C636.989 380.22 636.495 378.995 635.615 378.092C634.735 377.189 633.542 376.681 632.298 376.681Z" fill="#414042"/>
<path d="M303.953 191.242C302.655 191.242 301.385 190.846 300.305 190.105C299.225 189.364 298.383 188.311 297.886 187.079C297.389 185.847 297.259 184.491 297.513 183.183C297.766 181.875 298.392 180.673 299.31 179.73C300.228 178.787 301.398 178.145 302.672 177.885C303.946 177.625 305.266 177.758 306.466 178.269C307.666 178.779 308.692 179.643 309.414 180.752C310.135 181.861 310.52 183.165 310.52 184.499C310.52 186.287 309.828 188.002 308.597 189.267C307.365 190.531 305.695 191.242 303.953 191.242ZM303.953 179.682C303.026 179.682 302.119 179.965 301.347 180.494C300.576 181.023 299.975 181.775 299.62 182.655C299.265 183.536 299.172 184.504 299.353 185.438C299.534 186.373 299.981 187.231 300.637 187.904C301.293 188.578 302.128 189.037 303.038 189.223C303.948 189.409 304.891 189.313 305.748 188.949C306.606 188.584 307.338 187.967 307.854 187.175C308.369 186.383 308.644 185.451 308.644 184.499C308.644 183.221 308.15 181.996 307.27 181.093C306.391 180.189 305.197 179.682 303.953 179.682Z" fill="#414042"/>
<path d="M665.555 346.25C663.566 346.25 656.145 345.644 654.377 336.771C652.698 328.357 645.099 329.807 644.775 329.869L644.405 327.981C644.503 327.981 654.156 326.054 656.216 336.386C657.923 344.94 665.559 344.343 665.883 344.314L666.047 346.241C666.047 346.241 665.86 346.25 665.555 346.25Z" fill="#414042"/>
<path d="M128.655 128.082C128.655 127.745 128.251 119.836 119.883 120.096C119.71 120.096 119.536 120.096 119.367 120.096C109.681 120.096 108.227 110.728 108.213 110.631L110.066 110.352C110.117 110.68 111.379 118.449 119.822 118.165C130.076 117.837 130.526 127.904 130.531 128.005L128.655 128.082Z" fill="#414042"/>
<path d="M589.613 99.2446H369.622C358.483 99.2446 349.452 108.517 349.452 119.956V333.814C349.452 345.252 358.483 354.525 369.622 354.525H589.613C600.753 354.525 609.783 345.252 609.783 333.814V119.956C609.783 108.517 600.753 99.2446 589.613 99.2446Z" fill="white"/>
<path d="M589.613 355.488H369.622C364.026 355.482 358.661 353.196 354.704 349.133C350.746 345.069 348.521 339.56 348.514 333.813V119.956C348.521 114.209 350.746 108.7 354.704 104.637C358.661 100.573 364.026 98.2876 369.622 98.2812H589.613C595.209 98.2876 600.575 100.573 604.532 104.637C608.489 108.7 610.715 114.209 610.721 119.956V333.813C610.715 339.56 608.489 345.069 604.532 349.133C600.575 353.196 595.209 355.482 589.613 355.488ZM369.622 100.208C364.522 100.208 359.63 102.288 356.023 105.992C352.417 109.695 350.391 114.718 350.391 119.956V333.813C350.391 339.051 352.417 344.074 356.023 347.777C359.63 351.481 364.522 353.562 369.622 353.562H589.613C594.714 353.562 599.605 351.481 603.212 347.777C606.819 344.074 608.845 339.051 608.845 333.813V119.956C608.845 114.718 606.819 109.695 603.212 105.992C599.605 102.288 594.714 100.208 589.613 100.208H369.622Z" fill="#414042"/>
<path d="M562.051 213.932C555.89 216.014 549.179 215.522 543.368 212.564C537.242 209.4 529.62 205.455 514.413 219.953C502.259 231.542 495.89 231.927 489.553 228.787C481.841 224.967 467.507 217.858 454.373 232.823C440.859 248.236 431.389 247.571 414.268 246.358L412.94 246.266C395.693 245.057 368.787 277.049 368.787 277.049C369.833 275.638 394.534 242.408 413.109 243.713L414.437 243.805C431.323 244.999 439.818 245.601 452.525 231.113C466.897 214.737 482.934 222.665 490.645 226.484C495.242 228.763 500.393 229.856 512.724 218.075C527.941 203.572 536.431 206.11 544.494 210.281C548.312 212.256 562.633 216.543 575.513 201.611L589.482 187.725L577.22 202.657C572.033 208.952 566.817 212.319 562.051 213.932Z" fill="#297C59"/>
<path d="M394.544 200.084L392.198 197.955C394.004 195.86 436.727 146.62 457.83 145.965C458.262 145.974 458.684 146.101 459.052 146.334C459.419 146.567 459.72 146.897 459.922 147.289C460.794 148.913 461.024 152.588 452.975 165.732C452.403 166.869 443.959 183.708 442.487 189.762C442.285 190.586 442.557 191.323 442.726 191.414C442.895 191.506 443.992 191.342 446.061 188.948C446.281 188.693 469.19 163.329 476.039 163.329C476.678 163.32 477.31 163.46 477.889 163.739C478.467 164.017 478.977 164.427 479.378 164.938C482.395 168.617 481.016 178.125 480.739 179.84C480.74 180.292 480.865 180.734 481.1 181.117C481.1 181.117 481.541 181.155 482.643 180.351C483.295 179.869 484.144 179.224 485.129 178.467C493.737 171.869 501.804 166.045 505.904 167.25C511.214 168.805 510.384 177.494 510.177 179.142C510.198 179.396 510.316 179.632 510.506 179.797C510.66 179.903 511.298 180.187 513.067 179.508C515.159 178.703 516.688 177.234 518.034 175.934C519.718 174.315 521.453 172.639 523.86 172.991C524.683 173.105 525.476 173.391 526.188 173.83C526.9 174.27 527.517 174.855 528.002 175.549C529.878 178.178 530.037 182.224 529.564 185.138C529.376 186.294 529.62 187.012 529.751 187.118C529.751 187.118 531.374 187.118 537.43 180.028C548.687 166.864 588.6 146.081 592.897 145.348C592.897 145.348 550.568 170.086 539.892 182.008C534.367 188.182 531.144 191.265 528.475 190.066C526.81 189.314 526.041 187.229 526.468 184.613C526.848 182.277 526.684 179.161 525.464 177.451C525.227 177.103 524.921 176.809 524.566 176.59C524.211 176.371 523.816 176.231 523.405 176.18C522.537 176.054 521.608 176.897 520.164 178.284C518.719 179.672 516.833 181.492 514.155 182.523C511.861 183.409 510.027 183.38 508.704 182.436C508.193 182.048 507.776 181.544 507.486 180.964C507.195 180.383 507.039 179.741 507.03 179.089V178.862C507.367 176.377 507.325 171.021 505.018 170.347C502.081 169.47 491.1 177.885 486.973 181.049C485.964 181.82 485.096 182.494 484.435 182.976C482.559 184.344 480.955 184.681 479.632 183.978C477.634 182.923 477.577 180.062 477.577 179.739V179.46C478.206 175.727 478.59 169.041 476.93 167.014C476.823 166.861 476.682 166.738 476.519 166.654C476.355 166.57 476.175 166.528 475.992 166.532C471.733 166.532 452.412 186.391 448.355 191.097C444.926 195.056 442.58 195.008 441.22 194.266C439.419 193.303 438.945 190.894 439.4 188.992C441.009 182.393 449.804 164.947 450.189 164.205L450.25 164.09C456.474 153.941 457.164 150.314 457.173 149.226C437.21 150.892 394.952 199.588 394.544 200.084Z" fill="#297C59"/>
<path d="M500.96 275.937C500.96 275.937 498.821 279.231 502.03 281.428C502.03 281.428 520.483 267.975 544.55 277.858C544.55 277.858 561.648 285.43 563.782 296.532C564.72 301.388 564.851 308.068 557.365 315.206C557.365 315.206 542.923 327.84 518.855 327.291C507.455 327.138 496.192 324.714 485.692 320.153C481.982 318.501 472.319 313.559 471.784 304.774C471.367 297.886 472.854 287.747 485.157 278.957C492.465 273.735 500.135 269.622 517.785 270.171C517.785 270.171 522.063 266.877 514.033 264.126C514.033 264.126 503.334 261.93 485.148 274.015C485.148 274.015 468.567 284.452 468.567 300.376C468.567 304.807 468.567 320.702 492.099 327.291C492.099 327.291 519.915 336.077 543.983 327.84C543.983 327.84 570.719 317.952 569.124 299.827C569.124 299.827 568.59 281.702 546.14 274.015C546.15 274.015 522.617 262.479 500.96 275.937Z" fill="#297C59"/>
<path d="M500.055 292.308C500.055 292.308 504.159 291.957 504.839 294.77L505.182 311.628C505.182 311.628 521.261 291.605 541.44 283.176L542.81 284.934C542.81 284.934 518.888 301.441 505.182 317.952C503.778 317.408 502.5 316.57 501.429 315.491C501.429 315.491 501.429 295.468 500.055 292.308Z" fill="#297C59"/>
<path d="M83.3808 503.637C83.3808 503.637 80.2615 489.226 88.0714 475.219C88.0714 475.219 92.3587 461.612 85.3415 449.21C78.3243 436.807 85.3415 422.791 93.5266 420.792C101.712 418.793 111.459 425.608 113.8 435.203C116.14 444.798 114.189 451.618 128.223 458.804C142.258 465.991 141.657 503.637 141.657 503.637H83.3808Z" fill="#FAFBFD"/>
<path d="M142.595 504.601H82.6303L82.4661 503.849C82.3348 503.247 79.3703 488.976 87.1943 474.834C87.532 473.654 90.9468 461.044 84.5206 449.682C82.7889 446.683 81.7719 443.307 81.5526 439.828C81.3333 436.349 81.918 432.867 83.2588 429.664C85.379 424.592 89.2253 420.821 93.3015 419.828C102.054 417.685 112.252 424.891 114.7 434.943C115.169 436.836 115.455 438.599 115.737 440.304C116.9 447.293 117.74 452.345 128.636 457.933C143.032 465.326 142.628 502.086 142.6 503.647L142.595 504.601ZM84.1735 502.674H140.719C140.682 496.841 139.922 465.894 127.787 459.667C116.06 453.636 115.043 447.625 113.879 440.636C113.603 438.97 113.316 437.265 112.871 435.42C110.657 426.336 101.534 419.804 93.7236 421.712C90.2197 422.569 86.8659 425.912 84.9756 430.435C83.7525 433.36 83.2199 436.54 83.4212 439.717C83.6226 442.893 84.5522 445.976 86.1342 448.714C93.278 461.348 89.1221 474.94 88.9486 475.513L88.8688 475.696C82.3394 487.434 83.6763 499.577 84.1641 502.674H84.1735Z" fill="#414042"/>
<path d="M112.936 504.239C101.318 478.201 92.6776 421.095 92.5885 420.512L94.4647 420.223C94.5492 420.792 103.156 477.637 114.663 503.435L112.936 504.239Z" fill="#414042"/>
<path d="M52.5351 458.563C55.9029 458.563 58.633 455.76 58.633 452.302C58.633 448.844 55.9029 446.04 52.5351 446.04C49.1674 446.04 46.4373 448.844 46.4373 452.302C46.4373 455.76 49.1674 458.563 52.5351 458.563Z" fill="#414042"/>
<path d="M83.3667 504.369C63.9756 497.053 53.1027 466.901 52.6524 465.62L54.857 464.796C54.9649 465.1 65.8096 495.179 84.1782 502.11L83.3667 504.369Z" fill="#414042"/>
<path d="M108.868 426.892L98.8905 454.352L100.648 455.026L110.626 427.566L108.868 426.892Z" fill="#414042"/>
<path d="M113.939 440.084L102.427 469.988L104.172 470.696L115.684 440.792L113.939 440.084Z" fill="#414042"/>
<path d="M43.0741 454.002C43.0741 454.002 52.5351 448.93 61.9399 451.998C61.9399 451.998 64.5103 466.154 54.9039 467.209C44.0076 468.413 43.0741 454.002 43.0741 454.002Z" fill="#13A842"/>
<path d="M28.2236 453.573C31.2856 453.573 33.7679 451.025 33.7679 447.88C33.7679 444.736 31.2856 442.187 28.2236 442.187C25.1615 442.187 22.6792 444.736 22.6792 447.88C22.6792 451.025 25.1615 453.573 28.2236 453.573Z" fill="#414042"/>
<path d="M72.0763 495.232C72.0763 495.232 66.6164 487.227 67.3857 480.821C68.155 474.415 72.0763 472.416 73.6196 472.816C75.1628 473.216 77.9115 474.015 76.7388 480.041C75.5662 486.066 72.0763 495.232 72.0763 495.232Z" fill="#414042"/>
<path d="M85.624 481.236L84.5132 482.789L113.436 504.606L114.547 503.053L85.624 481.236Z" fill="#414042"/>
<path d="M83.6173 490.274L82.5229 491.839L99.5962 504.428L100.691 502.863L83.6173 490.274Z" fill="#414042"/>
<path d="M165.054 442.592C165.054 442.592 161.156 434.182 165.054 423.374C168.952 412.565 171.677 378.941 148.29 380.535C124.902 382.129 123.364 414.169 125.681 430.579C127.998 446.99 124.513 458.203 120.61 467.412C116.708 476.621 104.24 483.422 106.187 503.84H185.327C185.327 503.84 189.225 471.415 165.054 442.592Z" fill="#FAFBFD"/>
<path d="M186.157 504.803H105.338L105.253 503.936C103.846 489.178 109.892 481.192 114.752 474.776C116.755 472.137 118.645 469.642 119.752 467.026C123.706 457.687 127.046 446.825 124.752 430.719C122.899 417.714 123.739 398.741 132.196 387.99C136.23 382.861 141.624 380.053 148.224 379.571C154.824 379.089 159.993 381.334 163.502 386.165C170.95 396.41 168.718 415.98 165.931 423.701C162.446 433.363 165.434 441.065 165.852 442.057C175.8 453.972 182.47 468.398 185.172 483.846C187.222 495.56 186.293 503.594 186.256 503.95L186.157 504.803ZM107.045 502.876H184.469C184.849 497.616 185.801 468.808 164.346 443.218L164.261 443.121L164.21 443.006C164.041 442.645 160.185 434.105 164.177 423.041C166.841 415.652 169.027 396.988 162.005 387.326C158.895 383.053 154.308 381.098 148.355 381.502C142.295 381.917 137.347 384.508 133.655 389.209C125.578 399.473 124.813 417.839 126.619 430.444C128.988 447.076 125.353 458.66 121.483 467.802C120.282 470.634 118.321 473.225 116.243 475.966C111.44 482.29 106.008 489.448 107.045 502.876Z" fill="#414042"/>
<path d="M35.1469 469.387C35.1469 469.387 22.9513 470.384 21.0422 467.397C19.1331 464.411 24.3819 461.772 31.3006 466.28C32.2903 466.925 35.1469 469.387 35.1469 469.387Z" fill="#414042"/>
<path d="M38.9323 475.735C38.9323 475.735 27.2291 479.313 24.7337 476.804C22.2383 474.295 26.8586 470.591 34.5371 473.519C35.6488 473.938 38.9323 475.735 38.9323 475.735Z" fill="#414042"/>
<path d="M65.1999 505.555C43.046 487.993 28.3174 461.242 28.1673 460.991L30.2171 459.816C30.3578 460.081 44.866 486.394 66.6352 503.647L65.1999 505.555Z" fill="#414042"/>
<path d="M147.173 503.84C139.303 460.302 139.72 428.994 141.46 410.397C143.336 390.168 147.089 380.414 147.225 380.009L148.97 380.722C148.932 380.818 145.175 390.712 143.341 410.706C141.624 429.163 141.221 460.244 149.04 503.488L147.173 503.84Z" fill="#414042"/>
<path d="M128.332 398.455L126.918 399.721L141.253 416.607L142.668 415.341L128.332 398.455Z" fill="#414042"/>
<path d="M19.6209 449.412C19.6209 449.412 27.6747 444.595 36.7746 447.591C36.7746 447.591 39.1199 460.461 30.3953 461.424C20.4699 462.527 19.6209 449.412 19.6209 449.412Z" fill="#13A842"/>
<path d="M126.044 409.698L124.634 410.969L140.63 429.666L142.04 428.395L126.044 409.698Z" fill="#414042"/>
<path d="M167.327 445.818L143.388 476.989L144.861 478.182L168.801 447.011L167.327 445.818Z" fill="#414042"/>
<path d="M172.246 453.121L144.864 487.93L146.324 489.14L173.706 454.332L172.246 453.121Z" fill="#414042"/>
<path d="M595.552 503.637C595.552 503.637 598.671 489.226 590.861 475.219C590.861 475.219 586.574 461.612 593.591 449.21C600.608 436.807 593.591 422.791 585.406 420.792C577.221 418.793 567.469 425.608 565.133 435.203C562.797 444.798 564.743 451.618 550.709 458.804C536.675 465.991 537.256 503.637 537.256 503.637H595.552Z" fill="#FAFBFD"/>
<path d="M596.307 504.601H536.346V503.637C536.323 502.077 535.919 465.316 550.315 457.923C561.207 452.331 562.042 447.283 563.21 440.294C563.496 438.589 563.787 436.826 564.251 434.933C566.695 424.881 576.916 417.675 585.65 419.819C589.721 420.811 593.567 424.582 595.692 429.654C597.029 432.856 597.611 436.337 597.392 439.813C597.172 443.29 596.158 446.664 594.431 449.662C587.99 461.049 591.414 473.639 591.757 474.815C599.576 488.956 596.616 503.233 596.485 503.83L596.307 504.601ZM538.209 502.674H594.773C595.242 499.572 596.588 487.41 590.082 475.701L590.003 475.518C589.82 474.945 585.668 461.352 592.817 448.718C594.397 445.98 595.325 442.897 595.526 439.721C595.728 436.545 595.196 433.365 593.976 430.439C592.099 425.917 588.731 422.574 585.223 421.716C577.418 419.79 568.29 426.34 566.08 435.425C565.611 437.25 565.349 438.974 565.072 440.641C563.909 447.615 562.905 453.646 551.164 459.671C539.006 465.894 538.241 496.841 538.209 502.674Z" fill="#414042"/>
<path d="M566.001 504.24L564.293 503.44C575.799 477.638 584.407 420.797 584.491 420.229L586.367 420.518C586.259 421.096 577.615 478.201 566.001 504.24Z" fill="#414042"/>
<path d="M626.402 458.563C629.77 458.563 632.5 455.76 632.5 452.302C632.5 448.844 629.77 446.04 626.402 446.04C623.034 446.04 620.304 448.844 620.304 452.302C620.304 455.76 623.034 458.563 626.402 458.563Z" fill="#414042"/>
<path d="M595.57 504.369L594.759 502.11C613.123 495.179 623.972 465.1 624.08 464.796L626.285 465.62C625.83 466.901 614.943 497.053 595.57 504.369Z" fill="#414042"/>
<path d="M570.081 426.848L568.323 427.521L578.3 454.981L580.058 454.308L570.081 426.848Z" fill="#414042"/>
<path d="M564.979 440.169L563.235 440.878L574.752 470.779L576.497 470.071L564.979 440.169Z" fill="#414042"/>
<path d="M635.858 454.002C635.858 454.002 626.402 448.93 616.997 451.998C616.997 451.998 614.422 466.154 624.033 467.209C634.929 468.413 635.858 454.002 635.858 454.002Z" fill="#13A842"/>
<path d="M606.861 495.232C606.861 495.232 612.316 487.227 611.551 480.821C610.787 474.415 606.861 472.416 605.313 472.816C603.765 473.216 601.025 474.015 602.193 480.041C603.361 486.066 606.861 495.232 606.861 495.232Z" fill="#414042"/>
<path d="M593.32 481.299L564.393 503.111L565.503 504.664L594.43 482.852L593.32 481.299Z" fill="#414042"/>
<path d="M513.878 442.592C513.878 442.592 517.781 434.182 513.878 423.373C509.976 412.565 507.255 378.94 530.643 380.539C554.03 382.138 555.592 414.169 553.256 430.579C550.92 446.989 554.424 458.202 558.322 467.412C562.22 476.621 574.697 483.422 572.746 503.84H493.61C493.61 503.84 489.703 471.414 513.878 442.592Z" fill="#FAFBFD"/>
<path d="M573.599 504.803H492.78L492.676 503.96C492.634 503.623 491.71 495.57 493.755 483.856C496.461 468.41 503.133 453.985 513.081 442.072C513.498 441.074 516.472 433.334 513.001 423.711C510.215 416.004 507.977 396.42 515.431 386.175C518.939 381.358 524.08 379.128 530.708 379.581C537.336 380.034 542.707 382.861 546.741 387.991C555.184 398.741 556.033 417.728 554.185 430.719C551.886 446.825 555.231 457.692 559.185 467.026C560.292 469.642 562.182 472.137 564.18 474.776C569.04 481.192 575.091 489.178 573.679 503.936L573.599 504.803ZM494.464 502.876H571.887C572.919 489.448 567.497 482.29 562.698 475.961C560.625 473.221 558.664 470.629 557.463 467.797C553.594 458.645 549.958 447.086 552.304 430.439C554.1 417.834 553.331 399.469 545.268 389.204C541.572 384.508 536.628 381.917 530.567 381.498C524.615 381.093 520.023 383.049 516.918 387.321C509.882 396.983 512.082 415.648 514.746 423.036C518.738 434.114 514.877 442.64 514.713 443.001L514.661 443.117L514.577 443.213C493.131 468.809 494.088 497.617 494.464 502.876Z" fill="#414042"/>
<path d="M531.764 503.84L529.915 503.488C537.739 460.244 537.336 429.163 535.619 410.706C533.743 390.712 529.991 380.818 529.967 380.722L531.712 380.009C531.867 380.414 535.582 390.177 537.472 410.397C539.212 428.97 539.634 460.278 531.764 503.84Z" fill="#414042"/>
<path d="M550.614 398.473L536.278 415.359L537.693 416.625L552.028 399.739L550.614 398.473Z" fill="#414042"/>
<path d="M552.892 409.715L536.893 428.409L538.302 429.681L554.302 410.987L552.892 409.715Z" fill="#414042"/>
<path d="M511.604 445.744L510.131 446.938L534.076 478.105L535.549 476.912L511.604 445.744Z" fill="#414042"/>
<path d="M506.686 453.045L505.226 454.255L532.602 489.069L534.062 487.858L506.686 453.045Z" fill="#414042"/>
<path d="M144.411 476.635L138.313 494.644L121.722 491.075L126.127 476.635H144.411Z" fill="#FAFBFD"/>
<path d="M138.927 495.758L120.517 491.798L125.437 475.667H145.729L138.927 495.758ZM122.928 490.353L137.698 493.532L143.088 477.604H126.816L122.928 490.353Z" fill="#414042"/>
<path d="M121.436 488.754C121.436 488.754 131.371 496.494 139.729 488.754L164.487 502C164.72 502.124 164.907 502.325 165.015 502.571C165.124 502.817 165.149 503.094 165.086 503.356C165.023 503.619 164.876 503.852 164.669 504.018C164.462 504.184 164.206 504.274 163.943 504.273H120.193C119.871 504.274 119.553 504.198 119.264 504.053C118.976 503.907 118.723 503.696 118.526 503.434C118.33 503.172 118.194 502.868 118.13 502.544C118.066 502.22 118.075 501.886 118.157 501.566L121.436 488.754Z" fill="#414042"/>
<path d="M233.064 476.626L233.533 494.645L216.004 494.447L214.78 476.626H233.064Z" fill="#FAFBFD"/>
<path d="M234.494 495.618L215.127 495.401L213.776 475.653H233.974L234.494 495.618ZM216.881 493.494L232.567 493.667L232.149 477.59H215.769L216.881 493.494Z" fill="#414042"/>
<path d="M215.718 488.754C215.718 488.754 225.653 496.494 234.011 488.754L258.768 502C259.002 502.124 259.188 502.325 259.297 502.571C259.406 502.817 259.431 503.094 259.368 503.356C259.305 503.619 259.158 503.852 258.951 504.018C258.743 504.184 258.487 504.274 258.224 504.273H214.475C214.153 504.274 213.835 504.198 213.546 504.053C213.257 503.907 213.005 503.696 212.808 503.434C212.611 503.172 212.476 502.868 212.412 502.544C212.348 502.22 212.357 501.886 212.439 501.566L215.718 488.754Z" fill="#414042"/>
<path d="M218.818 209.872C214.212 203.457 222.346 186.42 223.368 178.564C226.563 154 200.046 155.979 200.046 155.979C178.788 153.807 174.046 172.356 171.963 180.9C167.873 197.715 160.593 199.584 154.678 204.256C148.764 208.928 140.138 224.341 149.678 232.746C154.026 236.6 207.232 246.035 216.088 243.025C226.225 239.591 223.424 216.288 218.818 209.872Z" fill="#414042"/>
<path d="M178.657 214.453L187.869 193.501C187.869 193.501 180.632 179.311 190.173 180.664C190.173 180.664 208.935 183.366 212.552 169.851C212.552 169.851 225.057 206.679 201.364 203.64L200.703 219.178L178.657 214.453Z" fill="#FAFBFD"/>
<path d="M201.594 220.358L177.306 215.152L186.819 193.53C185.881 191.603 182.841 184.696 185.125 181.358C186.11 179.913 187.846 179.364 190.285 179.706C190.463 179.735 208.269 182.114 211.628 169.591L212.425 166.605L213.419 169.529C213.72 170.42 220.746 191.463 213.527 200.63C211.079 203.765 207.289 205.138 202.256 204.728L201.594 220.358ZM180.017 213.755L199.821 218.008L200.473 202.556L201.486 202.686C206.332 203.303 209.897 202.205 212.092 199.425C217.252 192.88 214.09 178.714 212.462 172.809C207.073 183.921 190.229 181.642 190.051 181.618C188.362 181.378 187.236 181.662 186.678 182.466C185.102 184.773 187.677 191.04 188.709 193.063L188.92 193.477L180.017 213.755Z" fill="#414042"/>
<path d="M201.088 246.594L223.392 262.518L281.133 279.809L293.84 267.72L236.061 242.741L201.228 214.361L201.088 246.594Z" fill="#13A842"/>
<path d="M174.492 302.332C174.914 303.637 214.601 364.51 227.655 384.518C230.358 388.667 232.083 393.404 232.693 398.356L242.905 479.829H212.486L193.723 399.661L143.064 327.836C143.064 327.836 132.421 312.221 151.175 292.444L174.492 302.332Z" fill="#414042"/>
<path d="M133.805 288.634C133.805 288.634 113.166 318.978 123.284 341.366L148.613 392.904L115.666 479.824H145.081L182.935 407.252C185.675 402.001 186.588 395.947 185.524 390.091L170.425 307.019L133.805 288.634Z" fill="#2D2D2D"/>
<path d="M201.35 213.711C201.35 213.711 189.431 211.51 183.854 202.662C183.854 202.662 170.425 199.801 154.205 215.416L123.322 252.133C122.378 253.255 121.682 254.573 121.283 255.998C120.883 257.422 120.789 258.918 121.007 260.383C121.225 261.848 121.75 263.247 122.546 264.484C123.341 265.721 124.388 266.766 125.615 267.547L141.024 277.353L129.368 295.565L178.53 314.301C178.53 314.301 189.971 275.051 204.141 263.414C216.736 253.068 203.635 220.734 201.35 213.711Z" fill="#13A842"/>
<path d="M455.714 212.661L465.654 209.29L496.438 212.81L516.608 215.118C517.106 215.174 517.577 215.376 517.966 215.699C518.355 216.022 518.646 216.453 518.804 216.941C518.962 217.428 518.98 217.952 518.857 218.45C518.734 218.949 518.475 219.4 518.109 219.751L503.305 233.96L480.697 255.698L470.752 259.069L455.714 212.661Z" fill="#FAFBFD"/>
<path d="M470.143 260.307L454.523 212.054L465.551 208.288L516.678 214.14C517.353 214.219 517.992 214.494 518.519 214.934C519.046 215.373 519.44 215.958 519.654 216.62C519.868 217.282 519.893 217.993 519.727 218.669C519.56 219.345 519.209 219.958 518.714 220.435L481.156 256.56L470.143 260.307ZM456.896 213.273L471.329 257.875L480.185 254.85L517.443 219.029C517.677 218.804 517.844 218.514 517.922 218.195C518.001 217.876 517.99 217.54 517.888 217.227C517.787 216.914 517.601 216.638 517.352 216.431C517.102 216.223 516.8 216.094 516.481 216.057L465.757 210.277L456.896 213.273Z" fill="#414042"/>
<path d="M64.501 346.139L465.654 209.271L465.78 209.665C464.198 210.586 462.976 212.043 462.324 213.786C461.671 215.529 461.628 217.451 462.201 219.223C462.775 220.995 463.93 222.508 465.469 223.503C467.008 224.498 468.836 224.914 470.64 224.679L470.738 224.977C469.157 225.898 467.936 227.354 467.283 229.097C466.631 230.839 466.587 232.76 467.16 234.532C467.733 236.304 468.887 237.816 470.425 238.812C471.963 239.807 473.789 240.224 475.593 239.991L475.692 240.289C474.11 241.21 472.888 242.667 472.235 244.41C471.582 246.153 471.539 248.075 472.113 249.847C472.686 251.619 473.841 253.132 475.38 254.127C476.919 255.122 478.747 255.538 480.551 255.303L480.678 255.698L79.5251 392.576L64.501 346.139Z" fill="#FAFBFD"/>
<path d="M78.9294 393.785L63.3236 345.527L64.2148 345.224L466.249 208.051L466.916 210.113L466.249 210.508C464.855 211.318 463.778 212.6 463.203 214.136C462.627 215.671 462.589 217.364 463.094 218.925C463.599 220.486 464.616 221.819 465.972 222.695C467.328 223.571 468.938 223.937 470.527 223.729L471.292 223.628L471.878 225.439L471.207 225.829C469.813 226.64 468.736 227.922 468.161 229.457C467.585 230.993 467.547 232.685 468.052 234.246C468.557 235.808 469.574 237.14 470.93 238.017C472.286 238.893 473.896 239.259 475.485 239.051L476.25 238.95L476.836 240.751L476.161 241.141C474.767 241.952 473.69 243.234 473.114 244.769C472.539 246.305 472.5 247.997 473.005 249.559C473.51 251.12 474.528 252.452 475.883 253.329C477.239 254.205 478.849 254.57 480.439 254.363L481.208 254.262L481.874 256.323L480.983 256.627L78.9294 393.785ZM65.6689 346.75L80.0974 391.352L476.977 255.938C475.526 255.483 474.215 254.65 473.17 253.521C472.125 252.392 471.383 251.004 471.015 249.493C470.647 247.982 470.665 246.399 471.069 244.898C471.472 243.396 472.247 242.028 473.318 240.925C471.706 240.683 470.191 239.986 468.942 238.911C467.693 237.837 466.76 236.427 466.246 234.839C465.732 233.251 465.658 231.548 466.032 229.92C466.406 228.291 467.214 226.802 468.365 225.617C466.864 225.393 465.444 224.773 464.245 223.818C463.046 222.863 462.109 221.606 461.523 220.169C460.938 218.732 460.724 217.163 460.904 215.616C461.084 214.069 461.65 212.597 462.549 211.341L65.6689 346.75Z" fill="#414042"/>
<path d="M496.438 212.791L516.608 215.098C517.106 215.155 517.577 215.357 517.966 215.68C518.355 216.003 518.646 216.434 518.804 216.921C518.962 217.409 518.981 217.933 518.857 218.431C518.734 218.929 518.475 219.381 518.109 219.732L503.305 233.96L496.438 212.791Z" fill="#2D2D2D"/>
<path d="M82.5552 389.609L66.8604 394.984C64.1384 395.913 61.1689 395.693 58.6048 394.373C56.0407 393.053 54.092 390.742 53.1872 387.947L46.2638 366.547C45.8123 365.164 45.6313 363.702 45.7314 362.247C45.8315 360.791 46.2105 359.37 46.8469 358.066C47.4832 356.761 48.3643 355.598 49.4395 354.644C50.5146 353.69 51.7627 352.964 53.1121 352.507L68.8257 347.146L82.5552 389.609Z" fill="#FAFBFD"/>
<path d="M63.4597 396.502C60.9905 396.5 58.5842 395.702 56.5809 394.22C54.5776 392.737 53.0787 390.646 52.296 388.241L45.3726 366.841C44.3898 363.804 44.622 360.49 46.0179 357.629C47.4138 354.767 49.8593 352.592 52.8166 351.582L69.4215 345.913L83.7561 390.226L67.1559 395.89C65.9638 396.296 64.7157 396.503 63.4597 396.502ZM68.2301 348.336L53.4076 353.393C52.1755 353.81 51.0357 354.473 50.0537 355.344C49.0717 356.214 48.2669 357.276 47.6855 358.466C47.1041 359.657 46.7575 360.955 46.6657 362.283C46.5738 363.612 46.7385 364.947 47.1503 366.21L54.0784 387.615C54.9071 390.165 56.6871 392.274 59.0279 393.479C61.3687 394.683 64.0792 394.885 66.5649 394.04L81.3826 388.983L68.2301 348.336Z" fill="#414042"/>
<path d="M86.3876 338.67L64.5003 346.138L79.5229 392.564L101.41 385.097L86.3876 338.67Z" fill="#2D2D2D"/>
<path d="M475.109 239.306L96.0811 368.627L96.6727 370.456L475.701 241.134L475.109 239.306Z" fill="#414042"/>
<path d="M470.153 223.995L91.1253 353.316L91.7169 355.144L470.745 225.823L470.153 223.995Z" fill="#414042"/>
<path d="M285.988 264.859L300.201 268.5L306.299 273.187C306.299 273.187 299.455 275.527 293.878 270.846L277.662 273.447L285.988 264.859Z" fill="#FAFBFD"/>
<path d="M274.923 274.853L285.711 263.775L300.604 267.599L308.269 273.504L306.557 274.087C306.266 274.188 299.417 276.452 293.582 271.847L274.923 274.853ZM294.103 269.824L294.427 270.099C297.799 272.931 301.73 272.989 304.024 272.676L299.755 269.391L286.265 265.923L280.313 272.04L294.103 269.824Z" fill="#414042"/>
<path d="M190.989 280.995L213.973 294.568L218.57 311.094C218.57 311.094 216.271 312.274 213.973 308.141L215.127 314.065C215.127 314.065 211.679 312.885 210.53 309.345V312.885C210.53 312.885 208.804 314.065 207.078 307.587L206.505 310.535C206.505 310.535 204.779 309.947 204.779 305.815L203.63 301.682C203.63 301.682 199.033 299.914 197.307 296.384L185.238 290.479L190.989 280.995Z" fill="#FAFBFD"/>
<path d="M216.36 315.482L214.831 314.956C213.563 314.467 212.416 313.696 211.473 312.697V313.377L211.051 313.666C210.823 313.805 210.566 313.888 210.302 313.908C210.037 313.928 209.771 313.885 209.526 313.781C208.733 313.468 207.983 312.62 207.326 311.175L207.209 311.758L206.205 311.411C205.961 311.33 203.86 310.482 203.86 305.911L202.87 302.356C201.651 301.807 198.269 300.073 196.646 297.058L183.873 290.84L190.656 279.694L214.761 293.927L219.677 311.594L218.978 311.956C218.893 311.999 217.392 312.731 215.572 311.474L216.36 315.482ZM209.592 303.387L211.416 309.018C211.863 310.327 212.704 311.456 213.818 312.24L211.942 302.51L214.808 307.664C215.816 309.475 216.745 310.072 217.378 310.227L213.199 295.208L191.303 282.276L186.612 290.016L198.02 295.599L198.165 295.892C199.699 299.042 203.94 300.709 203.982 300.733L204.423 300.906L205.736 305.632V305.766C205.719 306.579 205.814 307.39 206.018 308.175L206.956 303.358L207.983 307.322C208.597 309.634 209.179 310.814 209.592 311.407V303.387Z" fill="#414042"/>
<path d="M182.724 296.519L139.898 277.98L140.63 276.202L181.945 294.091L190.712 278.929L154.524 252.755L165.959 241.017L167.282 242.38L157.427 252.5L193.212 278.375L182.724 296.519Z" fill="#414042"/>
<path d="M520.196 480.897L537.749 480.941L537.05 498.926L519.666 499.663L520.196 480.897Z" fill="#FAFBFD"/>
<path d="M518.7 500.67L519.286 479.934L538.724 479.978L537.95 499.851L518.7 500.67ZM521.106 481.885L520.637 498.681L536.149 498.021L536.778 481.919L521.106 481.885Z" fill="#414042"/>
<path d="M531.496 499.051C531.496 499.051 539.32 489.081 532.031 480.267L545.634 455.22C545.763 454.986 545.965 454.804 546.208 454.701C546.45 454.599 546.719 454.582 546.971 454.654C547.224 454.726 547.446 454.882 547.602 455.098C547.758 455.314 547.84 455.577 547.834 455.846L546.562 500.742C546.553 501.072 546.47 501.396 546.32 501.689C546.17 501.981 545.956 502.235 545.696 502.429C545.435 502.624 545.135 502.754 544.817 502.811C544.5 502.867 544.174 502.848 543.865 502.755L531.496 499.051Z" fill="#414042"/>
<path d="M362.521 463.563L445.137 467.204L520.661 479.694V503.117H362.774L362.521 463.563Z" fill="#FAFBFD"/>
<path d="M521.599 504.08H361.845L361.578 462.556L445.287 466.255L521.599 478.875V504.08ZM363.707 502.154H519.723V480.517L445.043 468.163L363.468 464.565L363.707 502.154Z" fill="#414042"/>
<path d="M486.358 474.699L493.863 492.718L476.334 492.52L468.074 474.699H486.358Z" fill="#FAFBFD"/>
<path d="M495.289 493.696L475.739 493.479L466.592 473.731H486.977L495.289 493.696ZM476.93 491.562L492.409 491.735L485.716 475.662H469.538L476.93 491.562Z" fill="#414042"/>
<path d="M473.703 486.827C473.703 486.827 483.638 494.568 491.996 486.827L516.754 500.073C516.987 500.197 517.173 500.399 517.282 500.645C517.391 500.891 517.416 501.167 517.353 501.43C517.29 501.692 517.143 501.925 516.936 502.092C516.728 502.258 516.473 502.348 516.209 502.346H472.469C472.147 502.347 471.83 502.272 471.541 502.126C471.252 501.981 470.999 501.769 470.803 501.508C470.606 501.246 470.47 500.942 470.406 500.618C470.342 500.294 470.352 499.959 470.434 499.64L473.703 486.827Z" fill="#414042"/>
<path d="M310.314 456.796C310.314 456.796 292.574 493.749 315.384 503.117H375.195L442.712 459.199L470.471 486.5L493.924 478.311L455.602 419.067C454.434 416.992 452.876 415.177 451.018 413.726C449.161 412.276 447.04 411.22 444.781 410.619C442.522 410.018 440.169 409.885 437.859 410.227C435.549 410.57 433.329 411.381 431.328 412.613L365.565 453.135L310.314 456.796Z" fill="#FAFBFD"/>
<path d="M375.467 504.08H315.211L315.047 504.013C309.887 501.894 306.308 498.233 304.413 493.161C298.967 478.576 309.052 457.268 309.484 456.367L309.723 455.885L365.283 452.22L430.854 411.823C432.959 410.526 435.294 409.672 437.723 409.31C440.152 408.948 442.628 409.086 445.005 409.715C447.382 410.344 449.613 411.453 451.569 412.975C453.525 414.498 455.167 416.405 456.399 418.585L495.406 478.827L470.232 487.603L442.594 460.422L375.467 504.08ZM315.567 502.154H374.923L442.834 457.98L470.71 485.401L492.493 477.801L454.79 419.549C453.685 417.583 452.211 415.863 450.452 414.489C448.693 413.115 446.685 412.115 444.545 411.546C442.406 410.978 440.177 410.853 437.99 411.178C435.803 411.503 433.701 412.273 431.806 413.441L365.87 454.098L310.947 457.72C309.465 461.015 301.463 479.877 306.172 492.472C307.837 496.976 310.989 500.232 315.567 502.154Z" fill="#414042"/>
<path d="M302.964 380.925L288.268 384.046L289.788 326.796L306.008 315.346L295.365 318.468L298.404 308.059L297.898 300.771C297.898 300.771 294.858 301.292 294.858 306.498L292.044 310.92L293.057 305.193L291.364 295.998C291.354 295.944 291.333 295.892 291.302 295.847C291.27 295.801 291.23 295.764 291.183 295.737C291.136 295.709 291.083 295.693 291.029 295.689C290.976 295.685 290.921 295.694 290.871 295.714C289.933 296.08 287.738 297.159 287.738 299.211V303.372L287.484 306.262L286.471 301.056L285.58 296.947C285.563 296.874 285.529 296.806 285.48 296.75C285.431 296.694 285.369 296.651 285.3 296.626C285.231 296.601 285.156 296.595 285.084 296.607C285.012 296.619 284.944 296.65 284.886 296.697C284.248 297.212 283.254 298.493 282.92 301.576L282.161 309.644L280.641 302.9C280.641 302.9 277.601 303.941 278.108 308.107L277.348 318.776C277.348 318.776 277.855 322.417 278.361 325.037L266.447 392.952C266.447 392.952 263.661 402.06 277.348 403.1C277.348 403.1 291.284 403.36 302.434 402.32L302.964 380.925Z" fill="#FAFBFD"/>
<path d="M281.316 404.034C278.91 404.034 277.4 404.006 277.353 404.006H277.301C272.034 403.601 268.436 401.992 266.597 399.189C265.988 398.235 265.58 397.16 265.401 396.034C265.222 394.908 265.274 393.756 265.556 392.653L277.428 324.96C276.935 322.378 276.447 318.882 276.443 318.843V318.742L277.203 308.059C276.776 304.205 279.079 302.361 280.383 301.917L281.359 301.585L281.828 303.627L282.034 301.441C282.395 298.108 283.497 296.586 284.356 295.897C284.537 295.748 284.753 295.649 284.982 295.61C285.211 295.57 285.447 295.592 285.665 295.672C285.884 295.752 286.08 295.888 286.233 296.067C286.386 296.247 286.493 296.463 286.542 296.696L286.922 298.435C287.353 296.292 289.572 295.189 290.58 294.794C290.759 294.723 290.95 294.694 291.14 294.708C291.331 294.722 291.516 294.78 291.683 294.876C291.85 294.972 291.995 295.105 292.108 295.264C292.22 295.424 292.298 295.607 292.335 295.8L294.028 304.99C294.577 300.405 297.626 299.827 297.78 299.803L298.798 299.63L299.389 308.145L296.791 317.037L311.332 312.779L290.712 327.311L289.239 382.856L303.953 379.735L303.395 403.143L302.565 403.22C295.079 403.919 286.288 404.034 281.316 404.034ZM277.414 402.079C278.08 402.079 290.941 402.296 301.542 401.381L302.011 382.114L287.311 385.235L288.878 326.28L300.759 317.889L293.986 319.879L297.471 307.948L297.082 302.337C296.472 302.948 295.81 304.152 295.81 306.498V306.782L290.304 315.51L292.128 305.217L290.599 296.918C289.802 297.332 288.723 298.108 288.723 299.23V303.468L287.883 312.948L285.599 301.229L284.933 298.136C284.332 299.217 283.981 300.425 283.906 301.667L282.592 315.601L280.031 304.374C279.435 304.957 278.816 306.036 279.046 307.938V308.035L278.286 318.694C278.371 319.301 278.826 322.48 279.276 324.782L279.309 324.965L267.366 393.183C267.161 394.022 267.125 394.896 267.262 395.751C267.4 396.605 267.706 397.421 268.164 398.149C269.665 400.403 272.779 401.727 277.414 402.079ZM293.939 305.747L293.831 306.354L293.92 306.214C293.925 306.05 293.929 305.877 293.939 305.742V305.747Z" fill="#414042"/>
<path d="M350.86 382.485C350.86 381.965 349.847 361.668 349.847 361.668C349.847 361.668 367.085 368.975 358.974 331.477C358.974 331.477 339.415 321.271 333.378 335.904C327.041 351.254 330.094 382.485 330.094 382.485H350.86Z" fill="#FAFBFD"/>
<path d="M351.798 383.448H329.236L329.147 382.581C329.025 381.295 326.159 350.931 332.515 335.528C334.048 331.805 336.549 329.266 339.949 328C348.247 324.888 358.946 330.408 359.397 330.62L359.795 330.827L359.889 331.27C363.337 347.208 362.704 357.338 358.041 361.374C355.527 363.551 352.553 363.344 350.855 362.968C351.094 367.751 351.793 382.018 351.793 382.485L351.798 383.448ZM330.934 381.522H349.879C349.725 378.078 349.148 366.537 348.908 361.716L348.833 360.194L350.203 360.777C350.353 360.839 354.035 362.328 356.845 359.89C359.655 357.453 362.098 350.686 358.149 332.147C356.188 331.207 347.276 327.296 340.582 329.811C337.693 330.894 335.559 333.071 334.236 336.279C328.654 349.814 330.516 376.387 330.939 381.522H330.934Z" fill="#414042"/>
<path d="M387.611 365.569L402.311 362.447L390.65 296.869L371.391 292.703L377.728 290.362L372.151 284.1L369.209 277.198C369.141 277.038 369.115 276.863 369.133 276.69C369.15 276.516 369.212 276.351 369.311 276.209C369.409 276.067 369.542 275.954 369.697 275.881C369.851 275.808 370.021 275.777 370.19 275.792C371.808 275.941 374.224 276.572 375.195 278.898L382.794 285.16L375.195 274.751L373.192 269C373.129 268.819 373.115 268.625 373.15 268.436C373.185 268.247 373.269 268.072 373.392 267.928C373.516 267.783 373.674 267.675 373.852 267.615C374.029 267.555 374.219 267.544 374.402 267.584C375.344 267.782 376.227 268.203 376.981 268.816C377.735 269.428 378.337 270.214 378.741 271.11L389.384 282.559L382.287 271.105L380.748 266.38C380.69 266.202 380.679 266.012 380.717 265.828C380.755 265.645 380.841 265.475 380.964 265.337C381.088 265.2 381.246 265.098 381.421 265.044C381.596 264.991 381.781 264.986 381.959 265.031C383.15 265.354 384.721 266.226 385.838 268.514L391.936 276.322L389.403 270.599L388.643 267.464C388.617 267.372 388.618 267.274 388.647 267.183C388.675 267.092 388.729 267.012 388.802 266.953C388.875 266.893 388.963 266.857 389.056 266.85C389.149 266.842 389.242 266.863 389.323 266.91C390.413 267.521 391.315 268.434 391.926 269.545L397.503 277.868L404.094 290.362L405.107 296.084L421.022 368.815C421.46 370.812 421.187 372.903 420.254 374.711C419.32 376.52 417.788 377.925 415.933 378.675L391.668 388.472L387.611 365.569Z" fill="#FAFBFD"/>
<path d="M390.946 389.796L386.509 364.818L401.209 361.692L389.844 297.688L367.962 292.958L376.081 289.953L371.353 284.655L368.351 277.603C368.217 277.29 368.164 276.947 368.199 276.607C368.233 276.267 368.353 275.942 368.548 275.664C368.742 275.386 369.003 275.165 369.306 275.023C369.609 274.881 369.943 274.822 370.274 274.853C373.018 275.108 375.021 276.332 375.955 278.306L377.61 279.669L374.355 275.214L372.31 269.323C372.189 268.983 372.159 268.616 372.224 268.26C372.29 267.904 372.447 267.572 372.681 267.3C372.914 267.027 373.215 266.822 373.551 266.707C373.887 266.592 374.247 266.57 374.594 266.645C375.651 266.865 376.644 267.331 377.497 268.008C378.35 268.684 379.04 269.553 379.515 270.547L383.455 274.785L381.433 271.525L379.862 266.674C379.748 266.329 379.729 265.959 379.805 265.604C379.881 265.248 380.05 264.92 380.293 264.656C380.531 264.394 380.834 264.203 381.17 264.104C381.505 264.005 381.86 264.001 382.198 264.093C383.516 264.449 385.345 265.412 386.63 267.984L388.31 270.137L387.709 267.691C387.64 267.413 387.654 267.12 387.747 266.85C387.841 266.58 388.01 266.344 388.235 266.173C388.456 266.003 388.721 265.904 388.998 265.887C389.274 265.871 389.548 265.939 389.787 266.082C391.015 266.777 392.032 267.805 392.728 269.054L398.32 277.415L404.98 290.044L406.022 295.921L421.932 368.603C422.427 370.825 422.127 373.156 421.087 375.17C420.047 377.184 418.335 378.746 416.266 379.571L390.946 389.796ZM388.699 366.32L392.386 387.143L415.59 377.774C417.242 377.115 418.607 375.867 419.436 374.259C420.266 372.652 420.504 370.791 420.108 369.018L404.192 296.287L403.198 290.675L396.692 278.374L391.063 269.974C390.754 269.38 390.327 268.86 389.811 268.447L390.256 270.263L395.885 282.945L384.998 268.933C384.027 266.939 382.681 266.207 381.715 265.947C381.706 265.942 381.696 265.939 381.687 265.939C381.677 265.939 381.667 265.942 381.658 265.947C381.65 265.96 381.645 265.975 381.645 265.99C381.645 266.006 381.65 266.021 381.658 266.034L383.159 270.662L390.195 282.01L388.708 283.239L377.967 271.679L377.901 271.549C377.558 270.786 377.046 270.117 376.405 269.594C375.765 269.072 375.015 268.71 374.214 268.538C374.193 268.532 374.171 268.533 374.15 268.54C374.129 268.546 374.111 268.559 374.097 268.577C374.087 268.593 374.082 268.613 374.082 268.632C374.082 268.652 374.087 268.671 374.097 268.688L376.053 274.299L388.005 290.675L374.449 279.535L374.355 279.313C373.59 277.483 371.635 276.929 370.133 276.789L369.238 277.237L370.101 276.852L372.976 283.595L379.398 290.791L374.848 292.477L391.49 296.07L403.395 363.194L388.699 366.32Z" fill="#414042"/>
<path d="M345.794 358.021C345.794 358.021 334.138 367.91 326.027 358.021C326.027 358.021 312.851 333.038 334.644 326.275C334.644 326.275 345.273 322.904 352.351 318.834C355.237 317.149 358.642 316.667 361.864 317.485C366.794 318.781 372.249 322.075 368.098 330.437C361.01 344.723 349.335 345.012 349.335 345.012C349.335 345.012 342.768 341.886 342.768 346.572C342.768 351.259 346.821 353.316 346.821 353.316L345.794 358.021Z" fill="#414042"/>
<path d="M351.371 373.117L372.657 367.91L395.468 362.188L400.027 386.647L377.981 396.28L367.338 456.637C367.338 456.637 341.305 458.862 334.222 463.592C309.554 480.06 300.449 470.692 300.449 470.692L308.56 407.714H295.365L295.871 380.65L328.814 375.458C328.814 375.458 336.164 386.646 351.371 373.117Z" fill="#13A842"/>
<path d="M664.194 503.84H0V505.766H664.194V503.84Z" fill="#414042"/>
<defs>
<linearGradient id="paint0_linear_216_16296" x1="366" y1="0" x2="366" y2="368.5" gradientUnits="userSpaceOnUse">
<stop stop-color="white"/>
<stop offset="1" stop-color="white" stop-opacity="0"/>
</linearGradient>
</defs>
</svg>
