<svg width="26" height="26" viewBox="0 0 26 26" fill="none" xmlns="http://www.w3.org/2000/svg">
<path d="M13.0488 21.3728C13.3778 21.3728 14.4341 20.9341 15.9453 19.5366C18.3463 17.3266 21.1494 13.4428 21.1494 9.78658C21.1494 7.62523 20.2908 5.55241 18.7625 4.0241C17.2342 2.4958 15.1614 1.63721 13 1.63721C10.8387 1.63721 8.76583 2.4958 7.23752 4.0241C5.70922 5.55241 4.85063 7.62523 4.85063 9.78658C4.85063 15.531 11.5416 21.251 13.0488 21.3728ZM13 4.93189C13.7681 4.93189 14.519 5.15967 15.1577 5.58642C15.7964 6.01318 16.2942 6.61973 16.5881 7.3294C16.8821 8.03906 16.959 8.81995 16.8091 9.57333C16.6593 10.3267 16.2894 11.0187 15.7462 11.5619C15.2031 12.105 14.5111 12.4749 13.7577 12.6248C13.0043 12.7746 12.2234 12.6977 11.5138 12.4038C10.8041 12.1098 10.1975 11.612 9.77078 10.9733C9.34403 10.3347 9.11625 9.58378 9.11625 8.81564C9.11733 7.78594 9.52685 6.79872 10.255 6.07061C10.9831 5.34249 11.9703 4.93297 13 4.93189ZM21.8563 22.1366C21.8563 22.8963 18.7322 24.371 13 24.371C7.26782 24.371 4.14375 22.8963 4.14375 22.1366C4.14375 21.6288 5.60625 20.6863 8.86438 20.1988C8.92099 20.1898 8.97583 20.172 9.02688 20.146C10.5544 21.5881 12.0494 22.5144 12.9513 22.5835H13.065C14.2838 22.5835 16.0591 21.0844 16.7741 20.4263C16.8634 20.345 16.9528 20.2556 17.0422 20.1663C17.0728 20.1762 17.104 20.1844 17.1356 20.1906C20.3938 20.6863 21.8563 21.6288 21.8563 22.1366Z" fill="#297C59"/>
</svg>
