<svg width="26" height="26" viewBox="0 0 26 26" fill="none" xmlns="http://www.w3.org/2000/svg">
<path d="M13 12.0331L23.3838 5.3625C22.9663 5.04937 22.4593 4.87849 21.9375 4.875H4.0625C3.54066 4.87849 3.03372 5.04937 2.61625 5.3625L13 12.0331Z" fill="#297C59"/>
<path d="M13.4388 13.6827L13.3006 13.7477H13.2356C13.1608 13.7811 13.0814 13.803 13 13.8127C12.9326 13.8212 12.8643 13.8212 12.7969 13.8127H12.7319L12.5938 13.7477L1.70625 6.71143C1.65423 6.90768 1.62694 7.10966 1.625 7.31268V18.6877C1.625 19.3341 1.88181 19.9541 2.33893 20.4112C2.79605 20.8684 3.41603 21.1252 4.0625 21.1252H21.9375C22.584 21.1252 23.204 20.8684 23.6611 20.4112C24.1182 19.9541 24.375 19.3341 24.375 18.6877V7.31268C24.3731 7.10966 24.3458 6.90768 24.2937 6.71143L13.4388 13.6827Z" fill="#297C59"/>
</svg>
