<svg width="40" height="40" viewBox="0 0 40 40" fill="none" xmlns="http://www.w3.org/2000/svg">
<path d="M10.9203 26.4058L9.70969 26.0942C9.48703 26.9619 9.37459 27.8542 9.37501 28.75C9.37067 30.361 9.73623 31.9514 10.4435 33.3988L11.5672 32.8513C10.9434 31.5743 10.621 30.1712 10.625 28.75C10.6246 27.9593 10.7238 27.1717 10.9203 26.4058ZM28.9083 25.8202C29.6664 28.137 29.496 30.6576 28.4328 32.8513L29.5565 33.3988C30.7622 30.9127 30.9555 28.0557 30.0958 25.4299L28.9083 25.8202ZM20 19.375C21.1699 19.3731 22.3297 19.5911 23.419 20.0178L23.8751 18.854C21.3622 17.8738 18.5712 17.8824 16.0643 18.878L16.5276 20.0389C17.6322 19.5983 18.8108 19.373 20 19.375Z" fill="#13A842" stroke="#13A842" stroke-width="0.4"/>
<path d="M38.125 34.375H37.5V11.25C37.4994 10.7529 37.3017 10.2763 36.9502 9.92479C36.5987 9.57328 36.1221 9.37556 35.625 9.375H33.75V3.125C33.7494 2.62789 33.5517 2.1513 33.2002 1.79979C32.8487 1.44828 32.3721 1.25056 31.875 1.25H8.125C7.62789 1.25056 7.1513 1.44828 6.79979 1.79979C6.44828 2.1513 6.25056 2.62789 6.25 3.125V9.375H4.375C3.87789 9.37556 3.4013 9.57328 3.04979 9.92479C2.69828 10.2763 2.50056 10.7529 2.5 11.25V34.375H1.875C1.70924 34.375 1.55027 34.4408 1.43306 34.5581C1.31585 34.6753 1.25 34.8342 1.25 35V36.875C1.25056 37.3721 1.44828 37.8487 1.79979 38.2002C2.1513 38.5517 2.62789 38.7494 3.125 38.75H36.875C37.3721 38.7494 37.8487 38.5517 38.2002 38.2002C38.5517 37.8487 38.7494 37.3721 38.75 36.875V35C38.75 34.8342 38.6842 34.6753 38.5669 34.5581C38.4497 34.4408 38.2908 34.375 38.125 34.375ZM3.75 11.25C3.75021 11.0843 3.81612 10.9255 3.93329 10.8083C4.05045 10.6911 4.2093 10.6252 4.375 10.625H6.25V11.875C6.25056 12.3721 6.44828 12.8487 6.79979 13.2002C7.1513 13.5517 7.62789 13.7494 8.125 13.75H18.125V12.5H8.125C7.9593 12.4998 7.80045 12.4339 7.68329 12.3167C7.56612 12.1995 7.50021 12.0407 7.5 11.875V3.125C7.50021 2.9593 7.56612 2.80045 7.68329 2.68329C7.80045 2.56612 7.9593 2.50021 8.125 2.5H31.875C32.0407 2.50021 32.1995 2.56612 32.3167 2.68329C32.4339 2.80045 32.4998 2.9593 32.5 3.125V11.875C32.4998 12.0407 32.4339 12.1995 32.3167 12.3167C32.1995 12.4339 32.0407 12.4998 31.875 12.5H29.375V13.75H31.875C32.3721 13.7494 32.8487 13.5517 33.2002 13.2002C33.5517 12.8487 33.7494 12.3721 33.75 11.875V10.625H35.625C35.7907 10.6252 35.9495 10.6911 36.0667 10.8083C36.1839 10.9255 36.2498 11.0843 36.25 11.25V34.375H24.375C24.2929 34.375 24.2116 34.3912 24.1358 34.4226C24.06 34.454 23.9911 34.5 23.933 34.558L23.4912 35H16.5089L16.067 34.558C16.0089 34.5 15.94 34.454 15.8642 34.4226C15.7884 34.3912 15.7071 34.375 15.625 34.375H3.75V11.25ZM37.5 36.875C37.4998 37.0407 37.4339 37.1995 37.3167 37.3167C37.1995 37.4339 37.0407 37.4998 36.875 37.5H3.125C2.9593 37.4998 2.80045 37.4339 2.68329 37.3167C2.56612 37.1995 2.50021 37.0407 2.5 36.875V35.625H15.3662L15.808 36.067C15.8661 36.125 15.935 36.171 16.0108 36.2024C16.0866 36.2338 16.1679 36.25 16.25 36.25H23.75C23.8321 36.25 23.9134 36.2338 23.9892 36.2024C24.065 36.171 24.1339 36.125 24.192 36.067L24.6338 35.625H37.5V36.875Z" fill="#13A842" stroke="#13A842" stroke-width="0.4"/>
<path d="M24.1162 25.625L17.058 32.683L17.9419 33.567L19.6875 31.8214L21.433 33.567L22.3169 32.683L20.5714 30.9375L21.5625 29.9464L25.183 33.567L26.0669 32.683L22.4464 29.0625L25.3319 26.177C26.7101 25.7531 27.9339 24.9348 28.8521 23.8231C29.7703 22.7115 30.3427 21.3552 30.4987 19.9218L30.6212 18.819C30.6315 18.7258 30.6208 18.6315 30.5897 18.5431C30.5587 18.4546 30.5082 18.3743 30.4419 18.308C30.3756 18.2418 30.2953 18.1912 30.2068 18.1602C30.1184 18.1292 30.0241 18.1185 29.9309 18.1288L28.8282 18.2513C27.3948 18.4073 26.0386 18.9797 24.9269 19.898C23.8153 20.8162 22.997 22.0399 22.5731 23.418L19.6875 26.3036L16.8214 23.4375L17.3169 22.942L16.433 22.058L16.0088 22.4823L15.6129 20.5024C15.5913 20.3944 15.5415 20.294 15.4685 20.2114C15.3956 20.1288 15.3022 20.067 15.1977 20.0321L9.57265 18.1571C9.46254 18.1204 9.34437 18.1151 9.2314 18.1417C9.11843 18.1684 9.01512 18.226 8.93303 18.3081C8.85095 18.3901 8.79335 18.4934 8.76668 18.6064C8.74001 18.7194 8.74532 18.8375 8.78203 18.9477L10.657 24.5727C10.6919 24.6772 10.7537 24.7706 10.8363 24.8436C10.9189 24.9165 11.0193 24.9663 11.1273 24.9879L13.1073 25.3838L12.683 25.808L13.5669 26.692L14.0625 26.1964L16.9286 29.0625L13.308 32.683L14.1919 33.567L23.125 24.6338L24.1162 25.625ZM28.9663 19.4938L29.2925 19.4574L29.2562 19.7838C29.1308 20.9376 28.6804 22.0322 27.9576 22.9403C27.2347 23.8483 26.269 24.5327 25.1726 24.9137L23.8362 23.5774C24.2173 22.481 24.9016 21.5153 25.8097 20.7924C26.7178 20.0695 27.8124 19.6192 28.9663 19.4938ZM11.7281 23.8333L10.8051 21.0641L12.683 22.942L13.5669 22.058L11.689 20.1802L14.4581 21.1033L14.9464 23.5445L14.1695 24.3216L11.7281 23.8333ZM14.9464 25.3125L15.9375 24.3214L18.8036 27.1875L17.8125 28.1786L14.9464 25.3125ZM9.37499 6.875H17.5V8.125H9.37499V6.875ZM20.625 13.9763V16.25C20.625 16.4158 20.6908 16.5747 20.8081 16.6919C20.9253 16.8092 21.0842 16.875 21.25 16.875H26.25C26.4158 16.875 26.5747 16.8092 26.6919 16.6919C26.8091 16.5747 26.875 16.4158 26.875 16.25V14.0089L27.5758 13.3081C27.7504 13.1344 27.8889 12.9278 27.9832 12.7002C28.0775 12.4726 28.1257 12.2286 28.125 11.9823V10.3998C28.124 9.96657 27.9735 9.54699 27.6989 9.21198C27.4242 8.87697 27.0423 8.64707 26.6177 8.56117L25 8.23758V5.625C25 5.12772 24.8025 4.65081 24.4508 4.29917C24.0992 3.94754 23.6223 3.75 23.125 3.75C22.6277 3.75 22.1508 3.94754 21.7992 4.29917C21.4475 4.65081 21.25 5.12772 21.25 5.625V9.11617L20.9461 8.81227C20.6222 8.48811 20.1858 8.30134 19.7277 8.29086C19.2696 8.28038 18.825 8.44698 18.4867 8.75598C18.1483 9.06499 17.9421 9.49259 17.9111 9.94977C17.8801 10.407 18.0266 10.8585 18.3201 11.2104L20.625 13.9763ZM21.875 15.625V14.375H25.625V15.625H21.875ZM19.3128 9.69609C19.362 9.64688 19.4204 9.60785 19.4847 9.58122C19.549 9.55458 19.6179 9.54088 19.6875 9.54088C19.7571 9.54088 19.826 9.55458 19.8903 9.58122C19.9546 9.60785 20.013 9.64688 20.0622 9.69609L21.433 11.067C21.5204 11.1544 21.6318 11.2139 21.7531 11.238C21.8743 11.2621 22 11.2498 22.1142 11.2024C22.2284 11.1551 22.326 11.075 22.3947 10.9722C22.4633 10.8695 22.5 10.7486 22.5 10.625V5.625C22.5 5.45924 22.5658 5.30027 22.6831 5.18306C22.8003 5.06585 22.9592 5 23.125 5C23.2908 5 23.4497 5.06585 23.5669 5.18306C23.6841 5.30027 23.75 5.45924 23.75 5.625V8.75C23.75 8.89448 23.8 9.0345 23.8916 9.14624C23.9832 9.25798 24.1107 9.33454 24.2523 9.36289L26.3727 9.78688C26.5142 9.81553 26.6415 9.89217 26.733 10.0038C26.8245 10.1155 26.8747 10.2554 26.875 10.3998V11.9823C26.8752 12.0644 26.8591 12.1457 26.8277 12.2216C26.7963 12.2975 26.7501 12.3663 26.6919 12.4242L25.9911 13.125H21.5427L19.2804 10.4102C19.1951 10.3088 19.1511 10.1791 19.1572 10.0468C19.1632 9.9145 19.2187 9.7893 19.3128 9.69609ZM27.5 6.875H30.625V8.125H27.5V6.875Z" fill="#13A842" stroke="#13A842" stroke-width="0.4"/>
</svg>
