<svg width="46" height="46" viewBox="0 0 46 46" fill="none" xmlns="http://www.w3.org/2000/svg">
<path d="M18.2083 21.0833H10.5416C10.0124 21.0833 9.58331 21.5124 9.58331 22.0416C9.58331 22.5709 10.0124 23 10.5416 23H18.2083C18.7375 23 19.1666 22.5709 19.1666 22.0416C19.1666 21.5124 18.7375 21.0833 18.2083 21.0833ZM35.4583 32.3437C34.7968 32.3437 34.2604 32.8801 34.2604 33.5416C34.2604 34.2032 34.7968 34.7396 35.4583 34.7396C36.1199 34.7396 36.6562 34.2032 36.6562 33.5416C36.6562 32.8801 36.1199 32.3437 35.4583 32.3437ZM35.4583 9.34373C34.7968 9.34373 34.2604 9.8801 34.2604 10.5416C34.2604 11.2032 34.7968 11.7396 35.4583 11.7396C36.1199 11.7396 36.6562 11.2032 36.6562 10.5416C36.6562 9.8801 36.1199 9.34373 35.4583 9.34373ZM29.7083 32.3437C29.0468 32.3437 28.5104 32.8801 28.5104 33.5416C28.5104 34.2032 29.0468 34.7396 29.7083 34.7396C30.3699 34.7396 30.9062 34.2032 30.9062 33.5416C30.9062 32.8801 30.3699 32.3437 29.7083 32.3437ZM18.2083 32.5833H10.5416C10.0124 32.5833 9.58331 33.0124 9.58331 33.5416C9.58331 34.0709 10.0124 34.5 10.5416 34.5H18.2083C18.7375 34.5 19.1666 34.0709 19.1666 33.5416C19.1666 33.0124 18.7375 32.5833 18.2083 32.5833ZM29.7083 20.8437C29.0468 20.8437 28.5104 21.3801 28.5104 22.0416C28.5104 22.7032 29.0468 23.2396 29.7083 23.2396C30.3699 23.2396 30.9062 22.7032 30.9062 22.0416C30.9062 21.3801 30.3699 20.8437 29.7083 20.8437ZM29.7083 9.34373C29.0468 9.34373 28.5104 9.8801 28.5104 10.5416C28.5104 11.2032 29.0468 11.7396 29.7083 11.7396C30.3699 11.7396 30.9062 11.2032 30.9062 10.5416C30.9062 9.8801 30.3699 9.34373 29.7083 9.34373ZM18.2083 9.58331H10.5416C10.0124 9.58331 9.58331 10.0124 9.58331 10.5416C9.58331 11.0709 10.0124 11.5 10.5416 11.5H18.2083C18.7375 11.5 19.1666 11.0709 19.1666 10.5416C19.1666 10.0124 18.7375 9.58331 18.2083 9.58331ZM35.4583 20.8437C34.7968 20.8437 34.2604 21.3801 34.2604 22.0416C34.2604 22.7032 34.7968 23.2396 35.4583 23.2396C36.1199 23.2396 36.6562 22.7032 36.6562 22.0416C36.6562 21.3801 36.1199 20.8437 35.4583 20.8437ZM42.1666 12.4583V8.62498C42.1642 5.97962 40.0203 3.83577 37.375 3.83331H8.62498C5.97962 3.83577 3.83577 5.97962 3.83331 8.62498V12.4583C3.83483 14.0333 4.60552 15.4184 5.77899 16.2916C4.60552 17.1649 3.83483 18.55 3.83331 20.125V23.9583C3.83483 25.5333 4.60552 26.9184 5.77899 27.7916C4.60552 28.6649 3.83483 30.05 3.83331 31.625V35.4583C3.83577 38.1037 5.97962 40.2475 8.62498 40.25H37.375C40.0203 40.2475 42.1642 38.1037 42.1666 35.4583V31.625C42.1651 30.05 41.3944 28.6649 40.221 27.7916C41.3944 26.9184 42.1651 25.5333 42.1666 23.9583V20.125C42.1651 18.55 41.3944 17.1649 40.221 16.2916C41.3944 15.4184 42.1651 14.0333 42.1666 12.4583ZM40.25 31.625V35.4583C40.2482 37.0454 38.9621 38.3316 37.375 38.3333H8.62498C7.03786 38.3316 5.75173 37.0454 5.74998 35.4583V31.625C5.75173 30.0379 7.03786 28.7517 8.62498 28.75H37.375C38.9621 28.7517 40.2482 30.0379 40.25 31.625ZM40.25 20.125V23.9583C40.2482 25.5454 38.9621 26.8316 37.375 26.8333H8.62498C7.03786 26.8316 5.75173 25.5454 5.74998 23.9583V20.125C5.75173 18.5379 7.03786 17.2517 8.62498 17.25H37.375C38.9621 17.2517 40.2482 18.5379 40.25 20.125ZM40.25 12.4583C40.2482 14.0454 38.9621 15.3316 37.375 15.3333H8.62498C7.03786 15.3316 5.75173 14.0454 5.74998 12.4583V8.62498C5.75173 7.03786 7.03786 5.75173 8.62498 5.74998H37.375C38.9621 5.75173 40.2482 7.03786 40.25 8.62498V12.4583Z" fill="#13A842"/>
</svg>
