<svg width="40" height="40" viewBox="0 0 40 40" fill="none" xmlns="http://www.w3.org/2000/svg">
<g clip-path="url(#clip0_149_16319)">
<path d="M22.5 30H17.5C16.837 30 16.2011 30.2634 15.7322 30.7322C15.2634 31.2011 15 31.837 15 32.5V37.5C15 38.163 15.2634 38.7989 15.7322 39.2678C16.2011 39.7366 16.837 40 17.5 40H22.5C23.163 40 23.7989 39.7366 24.2678 39.2678C24.7366 38.7989 25 38.163 25 37.5V32.5C25 31.837 24.7366 31.2011 24.2678 30.7322C23.7989 30.2634 23.163 30 22.5 30ZM23.3333 37.5C23.3333 37.721 23.2455 37.933 23.0893 38.0892C22.933 38.2455 22.721 38.3333 22.5 38.3333H17.5C17.279 38.3333 17.067 38.2455 16.9107 38.0892C16.7545 37.933 16.6667 37.721 16.6667 37.5V32.5C16.6667 32.279 16.7545 32.067 16.9107 31.9107C17.067 31.7545 17.279 31.6667 17.5 31.6667H22.5C22.721 31.6667 22.933 31.7545 23.0893 31.9107C23.2455 32.067 23.3333 32.279 23.3333 32.5V37.5ZM37.5 14.1667H30.8333C30.1703 14.1667 29.5344 14.43 29.0656 14.8989C28.5967 15.3677 28.3333 16.0036 28.3333 16.6667V23.3333C28.3333 23.9964 28.5967 24.6322 29.0656 25.1011C29.5344 25.5699 30.1703 25.8333 30.8333 25.8333H37.5C38.163 25.8333 38.7989 25.5699 39.2678 25.1011C39.7366 24.6322 40 23.9964 40 23.3333V16.6667C40 16.0036 39.7366 15.3677 39.2678 14.8989C38.7989 14.43 38.163 14.1667 37.5 14.1667ZM38.3333 23.3333C38.3333 23.5543 38.2455 23.7663 38.0893 23.9226C37.933 24.0789 37.721 24.1667 37.5 24.1667H30.8333C30.6123 24.1667 30.4004 24.0789 30.2441 23.9226C30.0878 23.7663 30 23.5543 30 23.3333V16.6667C30 16.4456 30.0878 16.2337 30.2441 16.0774C30.4004 15.9211 30.6123 15.8333 30.8333 15.8333H37.5C37.721 15.8333 37.933 15.9211 38.0893 16.0774C38.2455 16.2337 38.3333 16.4456 38.3333 16.6667V23.3333Z" fill="#CFA814"/>
<path d="M20 36.6667C20.9205 36.6667 21.6666 35.9205 21.6666 35C21.6666 34.0795 20.9205 33.3333 20 33.3333C19.0795 33.3333 18.3333 34.0795 18.3333 35C18.3333 35.9205 19.0795 36.6667 20 36.6667Z" fill="#CFA814"/>
<path d="M10.675 25L18.8583 28.275C18.9561 28.315 19.061 28.3349 19.1667 28.3333C19.3877 28.3333 19.5996 28.2455 19.7559 28.0893C19.9122 27.933 20 27.721 20 27.5V14.1667C20.0001 14.0305 19.9669 13.8964 19.9032 13.7761C19.8395 13.6557 19.7473 13.5528 19.6347 13.4764C19.522 13.3999 19.3924 13.3522 19.257 13.3374C19.1217 13.3227 18.9848 13.3413 18.8583 13.3917L10.675 16.6667H4.16665C3.13336 16.6656 2.13654 17.0486 1.36971 17.7411C0.602875 18.4337 0.120738 19.3865 0.016893 20.4146C-0.0869516 21.4426 0.194905 22.4726 0.807746 23.3046C1.42059 24.1365 2.32069 24.711 3.33332 24.9167C3.32936 24.9777 3.32936 25.039 3.33332 25.1L4.16665 31.7667C4.19122 31.9699 4.28974 32.157 4.44344 32.2923C4.59714 32.4275 4.79525 32.5015 4.99999 32.5H8.33332C8.45164 32.4999 8.56857 32.4745 8.67634 32.4257C8.7841 32.3768 8.88023 32.3056 8.95832 32.2167C9.03548 32.1285 9.09318 32.025 9.12764 31.913C9.1621 31.801 9.17256 31.683 9.15832 31.5667L8.33332 25H10.675ZM18.3333 26.2667L11.6667 23.6V18.0667L18.3333 15.4V26.2667ZM9.99999 23.3333H4.99999V18.3333H9.99999V23.3333ZM1.66665 20.8333C1.66638 20.3161 1.82653 19.8116 2.12503 19.3892C2.42353 18.9668 2.84569 18.6474 3.33332 18.475V23.1917C2.84569 23.0193 2.42353 22.6999 2.12503 22.2775C1.82653 21.8551 1.66638 21.3505 1.66665 20.8333ZM7.39165 30.8333H5.72499L4.99999 25H6.66665C6.66665 25 6.66665 25.0667 6.66665 25.1L7.39165 30.8333ZM27.5 7.5V2.5C27.5 1.83696 27.2366 1.20107 26.7677 0.732233C26.2989 0.263392 25.663 0 25 0L15 0C14.3369 0 13.7011 0.263392 13.2322 0.732233C12.7634 1.20107 12.5 1.83696 12.5 2.5V7.5C12.5 8.16304 12.7634 8.79893 13.2322 9.26777C13.7011 9.73661 14.3369 10 15 10H25C25.663 10 26.2989 9.73661 26.7677 9.26777C27.2366 8.79893 27.5 8.16304 27.5 7.5ZM25.8333 7.5C25.8333 7.72101 25.7455 7.93298 25.5892 8.08926C25.433 8.24554 25.221 8.33333 25 8.33333H15C14.779 8.33333 14.567 8.24554 14.4107 8.08926C14.2544 7.93298 14.1667 7.72101 14.1667 7.5V2.5C14.1667 2.27899 14.2544 2.06702 14.4107 1.91074C14.567 1.75446 14.779 1.66667 15 1.66667H25C25.221 1.66667 25.433 1.75446 25.5892 1.91074C25.7455 2.06702 25.8333 2.27899 25.8333 2.5V7.5Z" fill="#CFA814"/>
<path d="M21.2083 4.25832L19.5417 3.42499C19.4148 3.36107 19.2737 3.33063 19.1318 3.33658C18.9898 3.34252 18.8518 3.38465 18.7307 3.45896C18.6097 3.53327 18.5096 3.6373 18.44 3.76116C18.3705 3.88502 18.3338 4.0246 18.3333 4.16666V5.83332C18.333 5.97494 18.3689 6.1143 18.4374 6.23824C18.5059 6.36217 18.6049 6.4666 18.725 6.54166C18.8576 6.62385 19.0106 6.66716 19.1667 6.66666C19.2971 6.66588 19.4256 6.63448 19.5417 6.57499L21.2083 5.74166C21.3448 5.67173 21.4594 5.56548 21.5394 5.43462C21.6194 5.30376 21.6617 5.15336 21.6617 4.99999C21.6617 4.84662 21.6194 4.69622 21.5394 4.56536C21.4594 4.4345 21.3448 4.32826 21.2083 4.25832ZM35 18.3333C35.221 18.3333 35.433 18.2455 35.5892 18.0892C35.7455 17.933 35.8333 17.721 35.8333 17.5C35.8333 17.279 35.7455 17.067 35.5892 16.9107C35.433 16.7545 35.221 16.6667 35 16.6667C34.337 16.6667 33.7011 16.93 33.2322 17.3989C32.7634 17.8677 32.5 18.5036 32.5 19.1667C32.279 19.1667 32.067 19.2545 31.9107 19.4107C31.7545 19.567 31.6667 19.779 31.6667 20C31.6667 20.221 31.7545 20.433 31.9107 20.5892C32.067 20.7455 32.279 20.8333 32.5 20.8333V22.5C32.5 22.721 32.5878 22.933 32.7441 23.0892C32.9003 23.2455 33.1123 23.3333 33.3333 23.3333C33.5543 23.3333 33.7663 23.2455 33.9226 23.0892C34.0789 22.933 34.1667 22.721 34.1667 22.5V20.8333H35C35.221 20.8333 35.433 20.7455 35.5892 20.5892C35.7455 20.433 35.8333 20.221 35.8333 20C35.8333 19.779 35.7455 19.567 35.5892 19.4107C35.433 19.2545 35.221 19.1667 35 19.1667H34.1667C34.1667 18.9456 34.2545 18.7337 34.4107 18.5774C34.567 18.4211 34.779 18.3333 35 18.3333ZM34.85 27.6083C34.7549 27.5532 34.6498 27.5175 34.5408 27.5032C34.4318 27.4888 34.3211 27.4962 34.215 27.5249C34.1089 27.5535 34.0095 27.6029 33.9225 27.6702C33.8356 27.7374 33.7628 27.8212 33.7083 27.9167C32.1709 30.5979 29.8824 32.7705 27.125 34.1667C26.9287 34.2666 26.78 34.4401 26.7113 34.6493C26.6426 34.8586 26.6595 35.0865 26.7583 35.2833C26.8276 35.4208 26.9335 35.5363 27.0644 35.6172C27.1953 35.6981 27.3461 35.7412 27.5 35.7417C27.6307 35.7432 27.7597 35.7117 27.875 35.65C30.9224 34.1192 33.4545 31.7291 35.1583 28.775C35.2174 28.6789 35.2564 28.5718 35.2729 28.4601C35.2893 28.3485 35.2829 28.2347 35.2541 28.1256C35.2253 28.0165 35.1746 27.9144 35.1051 27.8255C35.0357 27.7366 34.9489 27.6627 34.85 27.6083ZM33.7 12.0833C33.8105 12.2756 33.9929 12.4161 34.207 12.4739C34.4211 12.5318 34.6494 12.5022 34.8417 12.3917C35.0339 12.2812 35.1744 12.0988 35.2323 11.8847C35.2901 11.6706 35.2605 11.4423 35.15 11.25C33.9738 9.20388 32.3913 7.42007 30.5 6.00832C30.4124 5.94266 30.3128 5.89489 30.2068 5.86773C30.1008 5.84057 29.9905 5.83456 29.8821 5.85003C29.6633 5.88129 29.4659 5.99818 29.3333 6.17499C29.2007 6.3518 29.1438 6.57405 29.175 6.79284C29.2063 7.01163 29.3232 7.20905 29.5 7.34166C31.2098 8.61801 32.6394 10.2319 33.7 12.0833ZM4.09166 14.95C4.18512 14.9839 4.2839 15.0009 4.38332 15C4.55359 15.0005 4.71995 14.9489 4.85999 14.8521C5.00004 14.7552 5.10706 14.6178 5.16666 14.4583C6.22525 11.6192 8.07628 9.14346 10.5 7.32499C10.5875 7.25933 10.6613 7.17707 10.7171 7.0829C10.7728 6.98874 10.8095 6.88451 10.8249 6.77618C10.8404 6.66784 10.8344 6.55752 10.8073 6.45151C10.7801 6.3455 10.7323 6.24587 10.6667 6.15832C10.601 6.07078 10.5187 5.99702 10.4246 5.94126C10.3304 5.88551 10.2262 5.84884 10.1178 5.83337C10.0095 5.81789 9.89918 5.8239 9.79317 5.85106C9.68716 5.87822 9.58754 5.926 9.49999 5.99166C6.81934 8.00058 4.7716 10.7367 3.59999 13.875C3.56134 13.9778 3.54341 14.0873 3.54723 14.1971C3.55104 14.3069 3.57653 14.4148 3.62222 14.5148C3.66792 14.6147 3.73292 14.7046 3.81348 14.7792C3.89405 14.8539 3.98858 14.912 4.09166 14.95ZM12.875 34.1667C12.4333 33.9417 12.0417 33.725 11.6667 33.4917C11.5736 33.4337 11.4701 33.3945 11.362 33.3766C11.2538 33.3586 11.1432 33.3621 11.0364 33.3868C10.9296 33.4116 10.8288 33.4571 10.7396 33.5209C10.6504 33.5846 10.5747 33.6653 10.5167 33.7583C10.4587 33.8513 10.4195 33.9549 10.4016 34.063C10.3836 34.1711 10.3871 34.2818 10.4118 34.3886C10.4366 34.4953 10.4821 34.5962 10.5459 34.6854C10.6096 34.7746 10.6903 34.8503 10.7833 34.9083C11.2083 35.1667 11.6167 35.4083 12.125 35.65C12.2403 35.7117 12.3693 35.7432 12.5 35.7417C12.6539 35.7412 12.8046 35.6981 12.9355 35.6172C13.0665 35.5363 13.1724 35.4208 13.2417 35.2833C13.3405 35.0865 13.3574 34.8586 13.2887 34.6493C13.22 34.4401 13.0713 34.2666 12.875 34.1667Z" fill="#CFA814"/>
</g>
<defs>
<clipPath id="clip0_149_16319">
<rect width="40" height="40" fill="white"/>
</clipPath>
</defs>
</svg>
