<svg width="38" height="38" viewBox="0 0 38 38" fill="none" xmlns="http://www.w3.org/2000/svg">
<path d="M35.0312 1.1875H2.96875C2.4965 1.18803 2.04374 1.37587 1.7098 1.7098C1.37587 2.04374 1.18803 2.4965 1.1875 2.96875V27.9062C1.18803 28.3785 1.37587 28.8313 1.7098 29.1652C2.04374 29.4991 2.4965 29.687 2.96875 29.6875H14.0833L12.5989 35.625H10.0938V36.8125H27.9062V35.625H25.4011L23.9167 29.6875H35.0312C35.5035 29.687 35.9563 29.4991 36.2902 29.1652C36.6241 28.8313 36.812 28.3785 36.8125 27.9062V2.96875C36.812 2.4965 36.6241 2.04374 36.2902 1.7098C35.9563 1.37587 35.5035 1.18803 35.0312 1.1875ZM2.96875 2.375H35.0312C35.1887 2.3752 35.3396 2.43782 35.4509 2.54912C35.5622 2.66043 35.6248 2.81134 35.625 2.96875V3.5625H5.9375V4.75H35.625V24.9375H2.375V2.96875C2.3752 2.81134 2.43782 2.66043 2.54912 2.54912C2.66043 2.43782 2.81134 2.3752 2.96875 2.375ZM24.1771 35.625H13.8229L15.3073 29.6875H22.6927L24.1771 35.625ZM35.0312 28.5H2.96875C2.81134 28.4998 2.66043 28.4372 2.54912 28.3259C2.43782 28.2146 2.3752 28.0637 2.375 27.9062V26.125H35.625V27.9062C35.6248 28.0637 35.5622 28.2146 35.4509 28.3259C35.3396 28.4372 35.1887 28.4998 35.0312 28.5Z" fill="#CFA814"/>
<path d="M3.5625 3.5625H4.75V4.75H3.5625V3.5625ZM8.90625 5.9375H10.0938V23.75H8.90625V5.9375ZM13.2364 10.5136L14.0761 9.67389L12.7146 8.3125L14.0761 6.95111L13.2364 6.11139L11.4551 7.89264C11.4 7.94778 11.3563 8.01324 11.3264 8.08527C11.2966 8.15731 11.2812 8.23453 11.2812 8.3125C11.2812 8.39047 11.2966 8.46769 11.3264 8.53973C11.3563 8.61176 11.4 8.67722 11.4551 8.73236L13.2364 10.5136ZM14.8862 9.87325L16.0737 6.9045L17.1763 7.34558L15.9888 10.3143L14.8862 9.87325ZM18.8261 10.5136L20.6074 8.73236C20.6625 8.67722 20.7062 8.61176 20.7361 8.53973C20.7659 8.46769 20.7813 8.39047 20.7813 8.3125C20.7813 8.23453 20.7659 8.15731 20.7361 8.08527C20.7062 8.01324 20.6625 7.94778 20.6074 7.89264L18.8261 6.11139L17.9864 6.95111L19.3479 8.3125L17.9864 9.67389L18.8261 10.5136ZM21.9688 7.71875H34.4375V8.90625H21.9688V7.71875ZM23.3301 19.1739L21.5489 20.9551C21.4938 21.0103 21.45 21.0757 21.4202 21.1478C21.3903 21.2198 21.375 21.297 21.375 21.375C21.375 21.453 21.3903 21.5302 21.4202 21.6022C21.45 21.6743 21.4938 21.7397 21.5489 21.7949L23.3301 23.5761L24.1699 22.7364L22.8084 21.375L24.1699 20.0136L23.3301 19.1739ZM24.98 22.9357L26.1675 19.967L27.27 20.4081L26.0825 23.3768L24.98 22.9357ZM28.9199 19.1739L28.0801 20.0136L29.4416 21.375L28.0801 22.7364L28.9199 23.5761L30.7011 21.7949C30.7562 21.7397 30.8 21.6743 30.8298 21.6022C30.8597 21.5302 30.875 21.453 30.875 21.375C30.875 21.297 30.8597 21.2198 30.8298 21.1478C30.8 21.0757 30.7562 21.0103 30.7011 20.9551L28.9199 19.1739ZM13.6562 19.5938H20.1875V20.7812H13.6562V19.5938ZM21.375 10.0938H31.4688V11.2812H21.375V10.0938ZM11.2812 12.4688H26.125V13.6562H11.2812V12.4688ZM12.4688 14.8438H32.6562V16.0312H12.4688V14.8438ZM11.2812 17.2188H19.5938V18.4062H11.2812V17.2188ZM12.4688 21.9688H19V23.1562H12.4688V21.9688ZM3.5625 6.53125H6.53125V7.71875H3.5625V6.53125ZM3.5625 9.5H6.53125V10.6875H3.5625V9.5ZM3.5625 12.4688H6.53125V13.6562H3.5625V12.4688ZM4.75 15.4375H7.71875V16.625H4.75V15.4375ZM4.75 18.4062H7.71875V19.5938H4.75V18.4062ZM4.75 21.375H7.71875V22.5625H4.75V21.375Z" fill="#CFA814"/>
</svg>
