<svg width="28" height="34" viewBox="0 0 28 34" fill="none" xmlns="http://www.w3.org/2000/svg">
<path d="M14 20.75C13.8177 20.75 13.6428 20.6776 13.5139 20.5486C13.3849 20.4197 13.3125 20.2448 13.3125 20.0625C13.3125 19.6978 13.1676 19.3481 12.9098 19.0902C12.6519 18.8324 12.3022 18.6875 11.9375 18.6875H3.6875C2.77582 18.6875 1.90148 18.3253 1.25682 17.6807C0.612164 17.036 0.25 16.1617 0.25 15.25V4.25C0.25 3.33832 0.612164 2.46398 1.25682 1.81932C1.90148 1.17466 2.77582 0.8125 3.6875 0.8125H24.3125C25.2242 0.8125 26.0985 1.17466 26.7432 1.81932C27.3878 2.46398 27.75 3.33832 27.75 4.25V15.25C27.75 16.1617 27.3878 17.036 26.7432 17.6807C26.0985 18.3253 25.2242 18.6875 24.3125 18.6875H16.0625C15.6978 18.6875 15.3481 18.8324 15.0902 19.0902C14.8324 19.3481 14.6875 19.6978 14.6875 20.0625C14.6875 20.2448 14.6151 20.4197 14.4861 20.5486C14.3572 20.6776 14.1823 20.75 14 20.75ZM3.6875 2.1875C3.14049 2.1875 2.61589 2.4048 2.22909 2.79159C1.8423 3.17839 1.625 3.70299 1.625 4.25V15.25C1.625 15.797 1.8423 16.3216 2.22909 16.7084C2.61589 17.0952 3.14049 17.3125 3.6875 17.3125H11.9375C12.2987 17.3122 12.6565 17.3831 12.9903 17.5211C13.3242 17.6591 13.6275 17.8616 13.8831 18.1169L14 18.2475C14.2577 17.9542 14.5749 17.7191 14.9305 17.5578C15.2862 17.3966 15.672 17.313 16.0625 17.3125H24.3125C24.8595 17.3125 25.3841 17.0952 25.7709 16.7084C26.1577 16.3216 26.375 15.797 26.375 15.25V4.25C26.375 3.70299 26.1577 3.17839 25.7709 2.79159C25.3841 2.4048 24.8595 2.1875 24.3125 2.1875H3.6875ZM14 33.3381C13.8177 33.3381 13.6428 33.2657 13.5139 33.1368C13.3849 33.0078 13.3125 32.833 13.3125 32.6506V31.0625C13.3125 30.3332 13.0228 29.6337 12.507 29.118C11.9913 28.6022 11.2918 28.3125 10.5625 28.3125C10.3802 28.3125 10.2053 28.2401 10.0764 28.1111C9.94743 27.9822 9.875 27.8073 9.875 27.625C9.875 27.4427 9.94743 27.2678 10.0764 27.1389C10.2053 27.0099 10.3802 26.9375 10.5625 26.9375C11.6565 26.9375 12.7057 27.3721 13.4793 28.1457C14.2529 28.9193 14.6875 29.9685 14.6875 31.0625V32.6506C14.6875 32.833 14.6151 33.0078 14.4861 33.1368C14.3572 33.2657 14.1823 33.3381 14 33.3381Z" fill="#CFA814"/>
</svg>
