<svg width="44" height="44" viewBox="0 0 44 44" fill="none" xmlns="http://www.w3.org/2000/svg">
<path d="M30.25 19.9375H13.75C13.5677 19.9375 13.3928 19.8651 13.2639 19.7361C13.1349 19.6072 13.0625 19.4323 13.0625 19.25C13.0625 18.8853 12.9176 18.5356 12.6598 18.2777C12.4019 18.0199 12.0522 17.875 11.6875 17.875C11.5052 17.875 11.3303 17.8026 11.2014 17.6736C11.0724 17.5447 11 17.3698 11 17.1875V10.3125C11 10.1302 11.0724 9.9553 11.2014 9.82636C11.3303 9.69743 11.5052 9.625 11.6875 9.625C12.0522 9.625 12.4019 9.48013 12.6598 9.22227C12.9176 8.96441 13.0625 8.61467 13.0625 8.25C13.0625 8.06766 13.1349 7.8928 13.2639 7.76386C13.3928 7.63493 13.5677 7.5625 13.75 7.5625H30.25C30.4323 7.5625 30.6072 7.63493 30.7361 7.76386C30.8651 7.8928 30.9375 8.06766 30.9375 8.25C30.9375 8.61467 31.0824 8.96441 31.3402 9.22227C31.5981 9.48013 31.9478 9.625 32.3125 9.625C32.4948 9.625 32.6697 9.69743 32.7986 9.82636C32.9276 9.9553 33 10.1302 33 10.3125V17.1875C33 17.3698 32.9276 17.5447 32.7986 17.6736C32.6697 17.8026 32.4948 17.875 32.3125 17.875C31.9478 17.875 31.5981 18.0199 31.3402 18.2777C31.0824 18.5356 30.9375 18.8853 30.9375 19.25C30.9375 19.4323 30.8651 19.6072 30.7361 19.7361C30.6072 19.8651 30.4323 19.9375 30.25 19.9375ZM14.3481 18.5625H29.6519C29.7748 18.0875 30.0226 17.654 30.3696 17.3071C30.7165 16.9601 31.15 16.7123 31.625 16.5894V10.9106C31.15 10.7877 30.7165 10.5399 30.3696 10.1929C30.0226 9.84596 29.7748 9.41251 29.6519 8.9375H14.3481C14.2252 9.41251 13.9774 9.84596 13.6304 10.1929C13.2835 10.5399 12.85 10.7877 12.375 10.9106V16.5894C12.85 16.7123 13.2835 16.9601 13.6304 17.3071C13.9774 17.654 14.2252 18.0875 14.3481 18.5625Z" fill="#13A842"/>
<path d="M22 17.1875C21.3201 17.1875 20.6555 16.9859 20.0902 16.6082C19.5249 16.2305 19.0843 15.6936 18.8242 15.0655C18.564 14.4374 18.4959 13.7462 18.6286 13.0794C18.7612 12.4126 19.0886 11.8001 19.5693 11.3193C20.0501 10.8386 20.6626 10.5112 21.3294 10.3786C21.9962 10.2459 22.6874 10.314 23.3155 10.5742C23.9436 10.8343 24.4805 11.2749 24.8582 11.8402C25.2359 12.4055 25.4375 13.0701 25.4375 13.75C25.4375 14.6617 25.0753 15.536 24.4307 16.1807C23.786 16.8253 22.9117 17.1875 22 17.1875ZM22 11.6875C21.5921 11.6875 21.1933 11.8085 20.8541 12.0351C20.515 12.2617 20.2506 12.5838 20.0945 12.9607C19.9384 13.3376 19.8975 13.7523 19.9771 14.1524C20.0567 14.5525 20.2531 14.92 20.5416 15.2084C20.83 15.4969 21.1975 15.6933 21.5976 15.7729C21.9977 15.8525 22.4124 15.8116 22.7893 15.6555C23.1662 15.4994 23.4883 15.235 23.7149 14.8959C23.9415 14.5567 24.0625 14.1579 24.0625 13.75C24.0625 13.203 23.8452 12.6784 23.4584 12.2916C23.0716 11.9048 22.547 11.6875 22 11.6875ZM15.8125 15.125C15.5406 15.125 15.2747 15.0444 15.0486 14.8933C14.8225 14.7422 14.6462 14.5274 14.5422 14.2762C14.4381 14.0249 14.4109 13.7485 14.4639 13.4818C14.517 13.215 14.6479 12.97 14.8402 12.7777C15.0325 12.5854 15.2775 12.4545 15.5443 12.4014C15.811 12.3484 16.0874 12.3756 16.3387 12.4797C16.5899 12.5837 16.8047 12.76 16.9558 12.9861C17.1069 13.2122 17.1875 13.4781 17.1875 13.75C17.1875 14.1147 17.0426 14.4644 16.7848 14.7223C16.5269 14.9801 16.1772 15.125 15.8125 15.125ZM28.1875 15.125C27.9156 15.125 27.6497 15.0444 27.4236 14.8933C27.1975 14.7422 27.0212 14.5274 26.9172 14.2762C26.8131 14.0249 26.7859 13.7485 26.8389 13.4818C26.892 13.215 27.0229 12.97 27.2152 12.7777C27.4075 12.5854 27.6525 12.4545 27.9193 12.4014C28.186 12.3484 28.4624 12.3756 28.7137 12.4797C28.9649 12.5837 29.1797 12.76 29.3308 12.9861C29.4819 13.2122 29.5625 13.4781 29.5625 13.75C29.5625 14.1147 29.4176 14.4644 29.1598 14.7223C28.9019 14.9801 28.5522 15.125 28.1875 15.125ZM18.5625 32.3125H14.4375C12.4318 32.3125 10.5082 31.5157 9.09001 30.0975C7.67176 28.6793 6.875 26.7557 6.875 24.75C6.875 24.5677 6.94743 24.3928 7.07636 24.2639C7.2053 24.1349 7.38016 24.0625 7.5625 24.0625H11.6875C13.6932 24.0625 15.6168 24.8593 17.035 26.2775C18.4532 27.6957 19.25 29.6193 19.25 31.625C19.25 31.8073 19.1776 31.9822 19.0486 32.1111C18.9197 32.2401 18.7448 32.3125 18.5625 32.3125ZM8.29125 25.4375C8.4603 26.9496 9.18054 28.3463 10.3143 29.3609C11.4481 30.3755 12.916 30.9368 14.4375 30.9375H17.8338C17.6647 29.4254 16.9445 28.0287 15.8107 27.0141C14.6769 25.9995 13.209 25.4382 11.6875 25.4375H8.29125ZM29.5625 33.6875H25.4375C25.2552 33.6875 25.0803 33.6151 24.9514 33.4861C24.8224 33.3572 24.75 33.1823 24.75 33C24.75 30.9943 25.5468 29.0707 26.965 27.6525C28.3832 26.2343 30.3068 25.4375 32.3125 25.4375H36.4375C36.6198 25.4375 36.7947 25.5099 36.9236 25.6389C37.0526 25.7678 37.125 25.9427 37.125 26.125C37.125 27.1181 36.9294 28.1015 36.5493 29.019C36.1693 29.9366 35.6122 30.7703 34.91 31.4725C34.2078 32.1747 33.3741 32.7318 32.4565 33.1118C31.539 33.4919 30.5556 33.6875 29.5625 33.6875ZM26.1663 32.3125H29.5625C31.084 32.3118 32.5519 31.7505 33.6857 30.7359C34.8195 29.7213 35.5397 28.3246 35.7087 26.8125H32.3125C30.791 26.8132 29.3231 27.3745 28.1893 28.3891C27.0555 29.4037 26.3353 30.8004 26.1663 32.3125Z" fill="#13A842"/>
<path d="M22 24.75C21.8177 24.75 21.6428 24.6776 21.5139 24.5486C21.3849 24.4197 21.3125 24.2448 21.3125 24.0625C21.3125 23.6978 21.1676 23.3481 20.9098 23.0902C20.6519 22.8324 20.3022 22.6875 19.9375 22.6875H11.6875C10.7758 22.6875 9.90148 22.3253 9.25682 21.6807C8.61216 21.036 8.25 20.1617 8.25 19.25V8.25C8.25 7.33832 8.61216 6.46398 9.25682 5.81932C9.90148 5.17466 10.7758 4.8125 11.6875 4.8125H32.3125C33.2242 4.8125 34.0985 5.17466 34.7432 5.81932C35.3878 6.46398 35.75 7.33832 35.75 8.25V19.25C35.75 20.1617 35.3878 21.036 34.7432 21.6807C34.0985 22.3253 33.2242 22.6875 32.3125 22.6875H24.0625C23.6978 22.6875 23.3481 22.8324 23.0902 23.0902C22.8324 23.3481 22.6875 23.6978 22.6875 24.0625C22.6875 24.2448 22.6151 24.4197 22.4861 24.5486C22.3572 24.6776 22.1823 24.75 22 24.75ZM11.6875 6.1875C11.1405 6.1875 10.6159 6.4048 10.2291 6.79159C9.8423 7.17839 9.625 7.70299 9.625 8.25V19.25C9.625 19.797 9.8423 20.3216 10.2291 20.7084C10.6159 21.0952 11.1405 21.3125 11.6875 21.3125H19.9375C20.2987 21.3122 20.6565 21.3831 20.9903 21.5211C21.3242 21.6591 21.6275 21.8616 21.8831 22.1169L22 22.2475C22.2577 21.9542 22.5749 21.7191 22.9305 21.5578C23.2862 21.3966 23.672 21.313 24.0625 21.3125H32.3125C32.8595 21.3125 33.3841 21.0952 33.7709 20.7084C34.1577 20.3216 34.375 19.797 34.375 19.25V8.25C34.375 7.70299 34.1577 7.17839 33.7709 6.79159C33.3841 6.4048 32.8595 6.1875 32.3125 6.1875H11.6875ZM22 37.3381C21.8177 37.3381 21.6428 37.2657 21.5139 37.1368C21.3849 37.0078 21.3125 36.833 21.3125 36.6506V35.0625C21.3125 34.3332 21.0228 33.6337 20.507 33.118C19.9913 32.6022 19.2918 32.3125 18.5625 32.3125C18.3802 32.3125 18.2053 32.2401 18.0764 32.1111C17.9474 31.9822 17.875 31.8073 17.875 31.625C17.875 31.4427 17.9474 31.2678 18.0764 31.1389C18.2053 31.0099 18.3802 30.9375 18.5625 30.9375C19.6565 30.9375 20.7057 31.3721 21.4793 32.1457C22.2529 32.9193 22.6875 33.9685 22.6875 35.0625V36.6506C22.6875 36.833 22.6151 37.0078 22.4861 37.1368C22.3572 37.2657 22.1823 37.3381 22 37.3381Z" fill="#13A842"/>
<path d="M22 37.125C21.8177 37.125 21.6428 37.0526 21.5139 36.9236C21.3849 36.7947 21.3125 36.6198 21.3125 36.4375C21.3125 35.3435 21.7471 34.2943 22.5207 33.5207C23.2943 32.7471 24.3435 32.3125 25.4375 32.3125C25.6198 32.3125 25.7947 32.3849 25.9236 32.5139C26.0526 32.6428 26.125 32.8177 26.125 33C26.125 33.1823 26.0526 33.3572 25.9236 33.4861C25.7947 33.6151 25.6198 33.6875 25.4375 33.6875C24.7082 33.6875 24.0087 33.9772 23.493 34.493C22.9772 35.0087 22.6875 35.7082 22.6875 36.4375C22.6875 36.6198 22.6151 36.7947 22.4861 36.9236C22.3572 37.0526 22.1823 37.125 22 37.125Z" fill="#13A842"/>
<path d="M22 37.125C21.8177 37.125 21.6428 37.0526 21.5139 36.9236C21.3849 36.7947 21.3125 36.6198 21.3125 36.4375V24.0625C21.3125 23.8802 21.3849 23.7053 21.5139 23.5764C21.6428 23.4474 21.8177 23.375 22 23.375C22.1823 23.375 22.3572 23.4474 22.4861 23.5764C22.6151 23.7053 22.6875 23.8802 22.6875 24.0625V36.4375C22.6875 36.6198 22.6151 36.7947 22.4861 36.9236C22.3572 37.0526 22.1823 37.125 22 37.125Z" fill="#13A842"/>
<path d="M29.5625 39.1875H24.0625C23.672 39.187 23.2862 39.1034 22.9305 38.9422C22.5749 38.7809 22.2577 38.5458 22 38.2525C21.7423 38.5458 21.4251 38.7809 21.0695 38.9422C20.7138 39.1034 20.328 39.187 19.9375 39.1875H14.4375C14.2552 39.1875 14.0803 39.1151 13.9514 38.9861C13.8224 38.8572 13.75 38.6823 13.75 38.5C13.75 38.3177 13.8224 38.1428 13.9514 38.0139C14.0803 37.8849 14.2552 37.8125 14.4375 37.8125H19.9375C20.3022 37.8125 20.6519 37.6676 20.9098 37.4098C21.1676 37.1519 21.3125 36.8022 21.3125 36.4375C21.3125 36.2552 21.3849 36.0803 21.5139 35.9514C21.6428 35.8224 21.8177 35.75 22 35.75C22.1823 35.75 22.3572 35.8224 22.4861 35.9514C22.6151 36.0803 22.6875 36.2552 22.6875 36.4375C22.6875 36.8022 22.8324 37.1519 23.0902 37.4098C23.3481 37.6676 23.6978 37.8125 24.0625 37.8125H29.5625C29.7448 37.8125 29.9197 37.8849 30.0486 38.0139C30.1776 38.1428 30.25 38.3177 30.25 38.5C30.25 38.6823 30.1776 38.8572 30.0486 38.9861C29.9197 39.1151 29.7448 39.1875 29.5625 39.1875Z" fill="#13A842"/>
</svg>
