<svg width="28" height="45" viewBox="0 0 28 45" fill="none" xmlns="http://www.w3.org/2000/svg">
<path d="M20.6742 1H24.9124C25.8983 1 26.6969 1.80681 26.6969 2.80294V42.1971C26.6969 43.1932 25.8983 44 24.9124 44H2.78451C1.79857 44 1 43.1932 1 42.1971V2.80294C1 1.80681 1.79857 1 2.78451 1H7.02271M20.6742 1L19.0681 2.31254H8.62877L7.02271 1M20.6742 1H7.02271M27 6.86062V11.1025M27 14.4244V17.0309M27 18.2105V20.817M13.1971 35.8868H14.8032M17.2122 35.8868H18.8183M10.788 35.8868H9.18196M15.8168 41.5841H11.8801C11.7588 41.5841 11.6482 41.5336 11.5687 41.4534C11.4893 41.3731 11.4394 41.2613 11.4394 41.1387C11.4394 40.8935 11.6374 40.6934 11.8801 40.6934H15.8168C15.9381 40.6934 16.0487 40.7439 16.1282 40.8241C16.2076 40.9044 16.2575 41.0161 16.2575 41.1387C16.2575 41.3839 16.0595 41.5841 15.8168 41.5841ZM20.692 13.1698H23.3688C23.9577 13.1698 24.4395 12.683 24.4395 12.088V9.38365C24.4395 8.78868 23.9577 8.30189 23.3688 8.30189H20.692C20.1031 8.30189 19.6213 8.78868 19.6213 9.38365V12.088C19.6213 12.683 20.1031 13.1698 20.692 13.1698ZM12.6618 13.1698H15.3385C15.9274 13.1698 16.4092 12.683 16.4092 12.088V9.38365C16.4092 8.78868 15.9274 8.30189 15.3385 8.30189H12.6618C12.0729 8.30189 11.5911 8.78868 11.5911 9.38365V12.088C11.5911 12.683 12.0729 13.1698 12.6618 13.1698ZM4.63147 13.1698H7.30823C7.89712 13.1698 8.37894 12.683 8.37894 12.088V9.38365C8.37894 8.78868 7.89712 8.30189 7.30823 8.30189H4.63147C4.04258 8.30189 3.56077 8.78868 3.56077 9.38365V12.088C3.56077 12.683 4.04258 13.1698 4.63147 13.1698ZM20.692 21.283H23.3688C23.9577 21.283 24.4395 20.7962 24.4395 20.2013V17.4969C24.4395 16.9019 23.9577 16.4151 23.3688 16.4151H20.692C20.1031 16.4151 19.6213 16.9019 19.6213 17.4969V20.2013C19.6213 20.7962 20.1031 21.283 20.692 21.283ZM12.6618 21.283H15.3385C15.9274 21.283 16.4092 20.7962 16.4092 20.2013V17.4969C16.4092 16.9019 15.9274 16.4151 15.3385 16.4151H12.6618C12.0729 16.4151 11.5911 16.9019 11.5911 17.4969V20.2013C11.5911 20.7962 12.0729 21.283 12.6618 21.283ZM4.63147 21.283H7.30823C7.89712 21.283 8.37894 20.7962 8.37894 20.2013V17.4969C8.37894 16.9019 7.89712 16.4151 7.30823 16.4151H4.63147C4.04258 16.4151 3.56077 16.9019 3.56077 17.4969V20.2013C3.56077 20.7962 4.04258 21.283 4.63147 21.283ZM20.692 29.3962H23.3688C23.9577 29.3962 24.4395 28.9094 24.4395 28.3145V25.6101C24.4395 25.0151 23.9577 24.5283 23.3688 24.5283H20.692C20.1031 24.5283 19.6213 25.0151 19.6213 25.6101V28.3145C19.6213 28.9094 20.1031 29.3962 20.692 29.3962ZM12.6618 29.3962H15.3385C15.9274 29.3962 16.4092 28.9094 16.4092 28.3145V25.6101C16.4092 25.0151 15.9274 24.5283 15.3385 24.5283H12.6618C12.0729 24.5283 11.5911 25.0151 11.5911 25.6101V28.3145C11.5911 28.9094 12.0729 29.3962 12.6618 29.3962ZM4.63147 29.3962H7.30823C7.89712 29.3962 8.37894 28.9094 8.37894 28.3145V25.6101C8.37894 25.0151 7.89712 24.5283 7.30823 24.5283H4.63147C4.04258 24.5283 3.56077 25.0151 3.56077 25.6101V28.3145C3.56077 28.9094 4.04258 29.3962 4.63147 29.3962Z" stroke="#13A842" stroke-width="1.5" stroke-miterlimit="10" stroke-linecap="round" stroke-linejoin="round"/>
</svg>
