<svg width="42" height="42" viewBox="0 0 42 42" fill="none" xmlns="http://www.w3.org/2000/svg">
<path d="M3.92725 7.89551C3.20237 7.89551 2.61475 8.48313 2.61475 9.20801V34.7756C2.61475 35.8802 3.51018 36.7756 4.61475 36.7756H39.9897C41.0943 36.7756 41.9897 35.8802 41.9897 34.7756V9.89551C41.9897 8.79094 41.0943 7.89551 39.9897 7.89551H3.92725ZM5.23975 11.5205C5.23975 10.9682 5.68746 10.5205 6.23975 10.5205H22.6147C23.167 10.5205 23.6147 10.9682 23.6147 11.5205V12.1301C23.6147 12.6824 23.167 13.1301 22.6147 13.1301H6.23975C5.68746 13.1301 5.23975 12.6824 5.23975 12.1301V11.5205ZM26.2397 11.5205C26.2397 10.9682 26.6875 10.5205 27.2397 10.5205H27.8647C28.417 10.5205 28.8647 10.9682 28.8647 11.5205V12.1301C28.8647 12.6824 28.417 13.1301 27.8647 13.1301H27.2397C26.6875 13.1301 26.2397 12.6824 26.2397 12.1301V11.5205ZM31.4897 11.5205C31.4897 10.9682 31.9375 10.5205 32.4897 10.5205H33.1147C33.667 10.5205 34.1147 10.9682 34.1147 11.5205V12.1301C34.1147 12.6824 33.667 13.1301 33.1147 13.1301H32.4897C31.9375 13.1301 31.4897 12.6824 31.4897 12.1301V11.5205ZM36.7397 11.5205C36.7397 10.9682 37.1875 10.5205 37.7397 10.5205H38.3647C38.917 10.5205 39.3647 10.9682 39.3647 11.5205V12.1301C39.3647 12.6824 38.917 13.1301 38.3647 13.1301H37.7397C37.1875 13.1301 36.7397 12.6824 36.7397 12.1301V11.5205ZM5.23975 15.7551H39.3647V34.1506H5.23975V15.7551ZM8.86475 18.3596C8.31246 18.3596 7.86475 18.8073 7.86475 19.3596V19.6721V30.5051C7.86475 31.0574 8.31246 31.5051 8.86475 31.5051H22.6147C23.167 31.5051 23.6147 31.0574 23.6147 30.5051V19.3596C23.6147 18.8073 23.167 18.3596 22.6147 18.3596H8.86475ZM27.2397 18.3801C26.6875 18.3801 26.2397 18.8278 26.2397 19.3801V20.0051C26.2397 20.5574 26.6875 21.0051 27.2397 21.0051H35.7397C36.292 21.0051 36.7397 20.5574 36.7397 20.0051V19.3801C36.7397 18.8278 36.292 18.3801 35.7397 18.3801H27.2397ZM10.4897 22.9846C10.4897 21.88 11.3852 20.9846 12.4897 20.9846H18.9897C20.0943 20.9846 20.9897 21.88 20.9897 22.9846V26.8801C20.9897 27.9847 20.0943 28.8801 18.9897 28.8801H12.4897C11.3852 28.8801 10.4897 27.9847 10.4897 26.8801V22.9846ZM27.2397 23.6301C26.6875 23.6301 26.2397 24.0778 26.2397 24.6301V25.2551C26.2397 25.8074 26.6875 26.2551 27.2397 26.2551H35.7397C36.292 26.2551 36.7397 25.8074 36.7397 25.2551V24.6301C36.7397 24.0778 36.292 23.6301 35.7397 23.6301H27.2397ZM27.2397 28.8801C26.6875 28.8801 26.2397 29.3278 26.2397 29.8801V30.5051C26.2397 31.0574 26.6875 31.5051 27.2397 31.5051H35.7397C36.292 31.5051 36.7397 31.0574 36.7397 30.5051V29.8801C36.7397 29.3278 36.292 28.8801 35.7397 28.8801H27.2397Z" fill="#13A842"/>
</svg>
