<svg width="64" height="64" viewBox="0 0 64 64" fill="none" xmlns="http://www.w3.org/2000/svg">
<path d="M26.2905 33.9085C26.2905 33.9085 24.6485 34.864 27.461 35.187C30.868 35.576 32.6095 35.52 36.3635 34.8105C36.3635 34.8105 37.353 35.429 38.731 35.965C30.313 39.5715 19.679 35.756 26.2905 33.9085ZM25.261 29.201C25.261 29.201 23.419 30.5655 26.2335 30.8565C29.8735 31.232 32.747 31.263 37.723 30.305C37.723 30.305 38.4095 31.003 39.491 31.3835C29.315 34.3605 17.9805 31.618 25.261 29.201Z" fill="#0074BD"/>
<path d="M33.9325 21.2155C36.008 23.6045 33.3885 25.7525 33.3885 25.7525C33.3885 25.7525 38.655 23.034 36.2365 19.6285C33.977 16.454 32.2455 14.8775 41.622 9.43951C41.6225 9.43951 26.903 13.1145 33.9325 21.2155Z" fill="#EA2D2E"/>
<path d="M45.066 37.3905C45.066 37.3905 46.282 38.393 43.727 39.168C38.869 40.6395 23.505 41.0835 19.2375 39.2265C17.7045 38.559 20.581 37.633 21.4855 37.4385C22.429 37.234 22.968 37.2715 22.968 37.2715C21.262 36.07 11.9405 39.631 18.2335 40.6525C35.3955 43.434 49.517 39.3995 45.066 37.3905ZM27.081 24.3235C27.081 24.3235 19.2665 26.18 24.314 26.855C26.446 27.14 30.693 27.0745 34.652 26.7425C37.8865 26.471 41.1325 25.8905 41.1325 25.8905C41.1325 25.8905 39.993 26.3795 39.1675 26.9425C31.2305 29.03 15.901 28.0575 20.3145 25.9235C24.046 24.118 27.081 24.3235 27.081 24.3235ZM41.1 32.1585C49.1675 27.9675 45.437 23.9395 42.8335 24.482C42.197 24.615 41.911 24.73 41.911 24.73C41.911 24.73 42.1485 24.358 42.6 24.1985C47.751 22.3885 51.7115 29.539 40.939 32.371C40.939 32.371 41.0625 32.259 41.1 32.1585Z" fill="#0074BD"/>
<path d="M36.237 0.656494C36.237 0.656494 40.7045 5.12599 31.999 11.9975C25.018 17.511 30.407 20.654 31.996 24.2465C27.921 20.5695 24.932 17.3325 26.937 14.3205C29.8815 9.89949 38.039 7.75499 36.237 0.656494Z" fill="#EA2D2E"/>
<path d="M27.8745 43.5195C35.6165 44.0145 47.509 43.244 47.7905 39.5805C47.7905 39.5805 47.2495 40.969 41.391 42.071C34.782 43.315 26.6295 43.1705 21.7955 42.3725C21.7955 42.3725 22.7855 43.1925 27.8745 43.5195Z" fill="#0074BD"/>
<path d="M47.433 50.0905H47.197V49.9585H47.832V50.0905H47.597V50.749H47.4325L47.433 50.0905ZM48.7005 50.1235H48.6975L48.4635 50.749H48.3555L48.123 50.1235H48.1205V50.749H47.9645V49.9585H48.193L48.4085 50.518L48.6245 49.9585H48.8515V50.749H48.7005V50.1235ZM26.6055 57.5185C25.8755 58.1515 25.1035 58.5075 24.41 58.5075C23.423 58.5075 22.8875 57.9145 22.8875 56.965C22.8875 55.9375 23.4605 55.185 25.7565 55.185H26.605V57.5185H26.6055ZM28.621 59.7925V52.754C28.621 50.9545 27.5945 49.7675 25.1225 49.7675C23.6795 49.7675 22.4145 50.1245 21.386 50.5785L21.682 51.825C22.492 51.5275 23.5395 51.2515 24.5675 51.2515C25.9925 51.2515 26.605 51.825 26.605 53.012V53.9015H25.893C22.4325 53.9015 20.871 55.244 20.871 57.263C20.871 59.0025 21.9 59.991 23.8375 59.991C25.0825 59.991 26.013 59.477 26.8815 58.7245L27.0395 59.793H28.621V59.7925ZM35.347 59.7925H32.8335L29.808 49.948H32.0035L33.8815 55.9975L34.299 57.815C35.247 55.186 35.919 52.517 36.255 49.9485H38.3905C37.819 53.189 36.789 56.7475 35.347 59.7925ZM44.991 57.5185C44.2585 58.1515 43.486 58.5075 42.795 58.5075C41.807 58.5075 41.272 57.9145 41.272 56.965C41.272 55.9375 41.8465 55.185 44.14 55.185H44.9905V57.5185H44.991ZM47.0075 59.7925V52.754C47.0075 50.9545 45.978 49.7675 43.508 49.7675C42.0635 49.7675 40.799 50.1245 39.7705 50.5785L40.067 51.825C40.877 51.5275 41.926 51.2515 42.954 51.2515C44.377 51.2515 44.991 51.825 44.991 53.012V53.9015H44.279C40.8175 53.9015 39.2565 55.244 39.2565 57.263C39.2565 59.0025 40.2845 59.991 42.2215 59.991C43.467 59.991 44.396 59.477 45.267 58.7245L45.426 59.793H47.0075V59.7925ZM18.661 61.4655C18.0875 62.305 17.1585 62.9695 16.1425 63.344L15.148 62.1715C15.9215 61.7745 16.584 61.134 16.8925 60.537C17.1585 60.0055 17.269 59.322 17.269 57.6865V46.4455H19.411V57.532C19.411 59.7195 19.237 60.604 18.661 61.4655Z" fill="#EA2D2E"/>
</svg>
