<svg width="47" height="59" viewBox="0 0 47 59" fill="none" xmlns="http://www.w3.org/2000/svg">
<path d="M23.5 26.1812C25.8675 26.1812 27.7867 24.262 27.7867 21.8945C27.7867 19.527 25.8675 17.6078 23.5 17.6078C21.1325 17.6078 19.2133 19.527 19.2133 21.8945C19.2133 24.262 21.1325 26.1812 23.5 26.1812Z" fill="#61DAFB"/>
<path d="M23.5 37.6586C26.8648 40.9312 30.1836 42.8672 32.857 42.8672C33.7328 42.8672 34.5625 42.6828 35.2539 42.268C37.6508 40.8851 38.5266 37.4281 37.6969 32.4961C37.5586 31.6203 37.3742 30.7445 37.1437 29.8226C38.0656 29.5461 38.8953 29.2695 39.725 28.993C44.3805 27.1953 46.9617 24.7062 46.9617 21.9867C46.9617 19.2211 44.3805 16.732 39.725 14.9805C38.8953 14.6578 38.0656 14.3812 37.1437 14.1508C37.3742 13.2289 37.5586 12.3531 37.6969 11.4773C38.4805 6.45311 37.6047 2.94999 35.2078 1.56718C34.5164 1.15233 33.6867 0.967957 32.8109 0.967957C30.1836 0.967957 26.8187 2.90389 23.4539 6.17655C20.1351 2.90389 16.8164 0.967957 14.143 0.967957C13.2672 0.967957 12.4375 1.15233 11.7461 1.56718C9.34921 2.94999 8.47343 6.40702 9.30311 11.3391C9.44139 12.2148 9.62577 13.0906 9.85624 14.0125C8.93436 14.2891 8.10467 14.5656 7.27499 14.8422C2.61952 16.6398 0.038269 19.1289 0.038269 21.8484C0.038269 24.6141 2.61952 27.1031 7.27499 28.8547C8.10467 29.1773 8.93436 29.4539 9.85624 29.6844C9.62577 30.6062 9.44139 31.482 9.30311 32.3578C8.51952 37.2898 9.3953 40.793 11.7461 42.1297C12.4375 42.5445 13.2672 42.7289 14.143 42.7289C16.8164 42.8211 20.1351 40.8851 23.5 37.6586ZM20.9187 31.4359C21.7484 31.482 22.6242 31.482 23.5 31.482C24.3758 31.482 25.2516 31.482 26.0812 31.4359C25.2516 32.5422 24.3758 33.5562 23.5 34.5242C22.6242 33.5562 21.7484 32.5422 20.9187 31.4359ZM15.2031 26.6883C15.6641 27.4719 16.0789 28.2094 16.5859 28.9469C15.157 28.7625 13.8203 28.532 12.5297 28.2555C12.9445 27.0109 13.4055 25.7203 13.9586 24.4297C14.3273 25.1672 14.7422 25.9508 15.2031 26.6883ZM12.5297 15.5797C13.8203 15.3031 15.157 15.0726 16.5859 14.8883C16.125 15.6258 15.6641 16.3633 15.2031 17.1469C14.7422 17.9305 14.3273 18.668 13.9586 19.4516C13.3594 18.1148 12.8984 16.8242 12.5297 15.5797ZM15.0648 21.8945C15.664 20.65 16.3094 19.4055 17.0469 18.1609C17.7383 16.9625 18.5219 15.7641 19.3055 14.5656C20.6883 14.4734 22.0711 14.4273 23.5 14.4273C24.975 14.4273 26.3578 14.4734 27.6945 14.5656C28.5242 15.7641 29.2617 16.9625 29.9531 18.1609C30.6906 19.4055 31.3359 20.65 31.9351 21.8945C31.3359 23.1391 30.6906 24.3836 29.9531 25.6281C29.2617 26.8265 28.4781 28.025 27.6945 29.2234C26.3117 29.3156 24.9289 29.3617 23.5 29.3617C22.025 29.3617 20.6422 29.3156 19.3055 29.2234C18.4758 28.025 17.7383 26.8265 17.0469 25.6281C16.3094 24.3836 15.664 23.1391 15.0648 21.8945ZM33.0875 19.4055L31.843 17.1008C31.382 16.3172 30.9672 15.5797 30.4601 14.8422C31.889 15.0266 33.2258 15.257 34.5164 15.5336C34.1016 16.8242 33.6406 18.1148 33.0875 19.4055ZM33.0875 24.3836C33.6406 25.6742 34.1016 26.9648 34.5164 28.2094C33.2258 28.4859 31.889 28.7164 30.4601 28.9008C30.9211 28.1633 31.382 27.4258 31.843 26.6422C32.2578 25.9508 32.6726 25.1672 33.0875 24.3836ZM34.1476 40.3781C33.7789 40.6086 33.318 40.7008 32.8109 40.7008C30.5523 40.7008 27.7406 38.857 24.975 36.0914C26.3117 34.6625 27.6023 33.0492 28.893 31.2516C31.0594 31.0672 33.1336 30.7445 35.0695 30.2836C35.3 31.1133 35.4383 31.943 35.5765 32.7726C36.2219 36.6906 35.7148 39.5023 34.1476 40.3781ZM36.5445 16.0867C41.707 17.5617 44.7953 19.8203 44.7953 21.8945C44.7953 23.6922 42.675 25.4898 38.9414 26.9187C38.2039 27.1953 37.3742 27.4719 36.5445 27.7023C35.9453 25.8125 35.2078 23.8766 34.2859 21.8945C35.2078 19.9125 35.9914 17.9766 36.5445 16.0867ZM32.857 3.08827C33.3641 3.08827 33.7789 3.18046 34.1937 3.41093C35.7148 4.28671 36.268 7.05233 35.6226 11.0164C35.4844 11.8 35.3 12.6297 35.1156 13.5055C33.1797 13.0906 31.1055 12.768 28.9391 12.5375C27.6945 10.7398 26.3578 9.12655 25.0211 7.69764C27.7867 4.97811 30.5984 3.08827 32.857 3.08827ZM26.0812 12.3531C25.2516 12.307 24.3758 12.307 23.5 12.307C22.6242 12.307 21.7484 12.307 20.9187 12.3531C21.7484 11.2469 22.6242 10.2328 23.5 9.26483C24.3758 10.2328 25.2516 11.293 26.0812 12.3531ZM12.8523 3.41093C13.2211 3.18046 13.682 3.08827 14.189 3.08827C16.4476 3.08827 19.2594 4.93202 22.025 7.69764C20.6883 9.12655 19.3976 10.7398 18.107 12.5375C15.9406 12.7219 13.8664 13.0445 11.9305 13.5055C11.7 12.6758 11.5617 11.8461 11.4234 11.0164C10.7781 7.09842 11.2851 4.3328 12.8523 3.41093ZM10.4555 27.7023C5.29296 26.2273 2.20467 23.9687 2.20467 21.8945C2.20467 20.0969 4.32499 18.2992 8.05858 16.8703C8.79608 16.5937 9.62577 16.3172 10.4555 16.0867C11.0547 17.9766 11.7922 19.9125 12.714 21.8945C11.7922 23.8766 11.0086 25.8586 10.4555 27.7023ZM11.4234 32.7726C11.5617 31.989 11.7461 31.1594 11.9305 30.2836C13.8664 30.6984 15.9406 31.0211 18.107 31.2516C19.3515 33.0492 20.6883 34.6625 22.025 36.0914C19.2594 38.8109 16.4476 40.7008 14.189 40.7008C13.682 40.7008 13.2672 40.6086 12.8523 40.3781C11.2851 39.5023 10.7781 36.6906 11.4234 32.7726ZM9.48749 51.7633C10.5015 50.5187 10.5476 49.1359 9.99452 47.7531C9.44139 46.3703 8.28905 45.725 6.86014 45.6789C5.15468 45.6328 3.40311 45.6789 1.69764 45.6789H1.37499V57.6172H2.7578V53.1H4.92421C5.20077 53.1 5.43124 53.1922 5.56952 53.4226L8.33514 57.7094C8.38124 57.8015 8.51952 57.9398 8.61171 57.9398H10.4094C9.30311 56.2344 8.24296 54.6211 7.13671 52.9617C8.10468 52.8234 8.93436 52.5008 9.48749 51.7633ZM2.7578 51.6711V47.1078H3.26483C4.32499 47.1078 5.43124 47.0617 6.49139 47.1539C7.73593 47.2 8.61171 48.168 8.61171 49.4125C8.61171 50.657 7.59764 51.625 6.35311 51.6711C5.24686 51.7172 4.14061 51.6711 2.7578 51.6711ZM20.5961 52.2703C19.8586 49.0437 16.9086 48.2141 14.65 49.2281C12.8984 50.0117 12.1148 51.5328 12.0687 53.4226C12.0226 54.8516 12.4375 56.1422 13.5437 57.1101C14.7883 58.2164 16.3094 58.3547 17.8765 58.0781C18.7523 57.8937 19.5359 57.4789 20.1351 56.8336C19.9047 56.5109 19.6742 56.1883 19.4437 55.9117C18.1531 57.018 16.7242 57.3867 15.157 56.6492C14.143 56.1422 13.6359 54.8976 13.5437 53.9758H20.6883V53.3766C20.7344 52.9617 20.6883 52.593 20.5961 52.2703ZM13.6359 53.0078C13.4976 51.625 14.8805 50.15 16.4016 50.15C18.1531 50.1039 19.2594 51.1641 19.3055 53.0078H13.6359ZM27.7867 48.9976C27.0953 48.8594 26.3578 48.8133 25.6664 48.8594C24.5601 48.9515 23.5922 49.4586 22.8086 50.2883C23.0391 50.6109 23.2234 50.9336 23.5 51.3023C23.5922 51.2101 23.6844 51.118 23.7766 51.0719C24.514 50.3805 25.3898 50.0117 26.45 50.1039C27.2797 50.15 28.0633 50.4265 28.2937 51.2562C28.4781 51.9016 28.432 52.593 28.4781 53.2844C28.3398 53.2844 28.2937 53.2383 28.2476 53.1922C27.1414 52.2703 25.8969 52.0859 24.5601 52.4086C23.3156 52.7312 22.532 53.6992 22.4398 54.9437C22.3476 56.3726 22.993 57.4328 24.2375 57.9398C25.0211 58.2625 25.8969 58.2625 26.7266 58.0781C27.3719 57.9398 27.6484 57.5711 28.5703 57.0641V57.6633H29.8609C29.8609 55.8195 29.907 53.5609 29.8609 51.4406C29.8609 50.1039 29.0773 49.2742 27.7867 48.9976ZM28.432 54.8055C28.3859 54.9437 28.432 55.082 28.432 55.2203C28.432 56.1883 28.2015 56.5109 27.2797 56.8797C26.6344 57.1101 25.943 57.2023 25.2516 56.9719C24.468 56.7414 23.9148 56.05 23.9148 55.2664C23.8687 54.4828 24.3758 53.6992 25.1594 53.4687C26.2195 53.1 27.1875 53.3305 28.0633 53.9758C28.3398 54.2062 28.5242 54.4367 28.432 54.8055ZM35.6226 50.2422C36.8211 49.8734 37.9273 50.1039 38.757 51.118L38.8953 51.2101C39.218 50.9336 39.4945 50.657 39.8633 50.3344C39.725 50.1961 39.6789 50.1039 39.5867 49.9656C38.25 48.5367 35.6226 48.3523 34.0094 49.5047C31.7508 51.1641 31.7969 54.3906 32.9031 56.0961C33.9633 57.7094 35.4844 58.2625 37.282 58.032C38.3422 57.8937 39.218 57.3867 39.9094 56.5109C39.5867 56.2344 39.264 55.9578 38.9414 55.6351C38.8492 55.7273 38.8031 55.7734 38.757 55.8656C37.5125 57.2484 35.4383 57.1101 34.332 55.6351C33.6867 54.7594 33.5484 53.7453 33.7328 52.7312C33.825 51.5789 34.4242 50.657 35.6226 50.2422ZM45.2101 56.5109C45.118 56.557 45.0719 56.6031 45.0719 56.6031C44.7031 56.8797 44.3344 56.9258 43.9195 56.7875C43.5047 56.6031 43.4586 56.2344 43.4125 55.8656V50.6109C43.4125 50.5187 43.4125 50.7031 43.4586 50.2422H45.2101V48.8594H43.3664V46.5547H41.9836V49.0437H40.7851C40.693 49.0437 40.5547 49.1359 40.5547 49.2281C40.5086 49.5508 40.5547 49.7812 40.5547 50.2422H42.0297V56.1422C42.0297 56.8797 42.2141 57.525 42.8594 57.8937C43.5508 58.3086 44.8875 58.2164 45.4867 57.7094C45.5789 57.6633 45.625 57.4789 45.625 57.4328C45.4867 57.1562 45.3484 56.8336 45.2101 56.5109Z" fill="#61DAFB"/>
</svg>
