<svg width="22" height="22" viewBox="0 0 22 22" fill="none" xmlns="http://www.w3.org/2000/svg">
<path fill-rule="evenodd" clip-rule="evenodd" d="M10.1033 0.376248C10.3263 0.375899 10.5662 0.376007 10.8251 0.376123L11.2518 0.376248C14.67 0.376248 15.0751 0.388518 16.425 0.449871C17.6732 0.506956 18.3507 0.715554 18.802 0.890809C19.3994 1.12288 19.8254 1.4003 20.2732 1.84844C20.7213 2.29658 20.9986 2.72338 21.2312 3.3209C21.4065 3.77171 21.6153 4.44926 21.6721 5.69765C21.7334 7.04741 21.7468 7.45287 21.7468 10.8699C21.7468 14.287 21.7334 14.6925 21.6721 16.0422C21.615 17.2906 21.4065 17.9682 21.2312 18.419C20.9992 19.0165 20.7213 19.442 20.2732 19.8898C19.8251 20.338 19.3997 20.6154 18.802 20.8475C18.3512 21.0235 17.6732 21.2316 16.425 21.2887C15.0754 21.35 14.67 21.3634 11.2518 21.3634C7.83326 21.3634 7.42811 21.35 6.07853 21.2887C4.8303 21.2311 4.15284 21.0225 3.70129 20.8472C3.10384 20.6151 2.67709 20.3377 2.22901 19.8896C1.78093 19.4414 1.50354 19.0157 1.27097 18.4179C1.09573 17.9671 0.886894 17.2896 0.830083 16.0412C0.768739 14.6914 0.75647 14.2859 0.75647 10.8667C0.75647 7.44753 0.768739 7.04421 0.830083 5.69445C0.887161 4.44606 1.09573 3.76851 1.27097 3.31717C1.50301 2.71965 1.78093 2.29285 2.22901 1.84471C2.67709 1.39657 3.10384 1.11915 3.70129 0.886541C4.15257 0.710486 4.8303 0.502421 6.07853 0.44507C7.25955 0.391719 7.71724 0.375714 10.1033 0.373047V0.376248ZM18.0861 2.50224C17.2381 2.50224 16.55 3.18957 16.55 4.03799C16.55 4.88614 17.2381 5.57426 18.0861 5.57426C18.9342 5.57426 19.6222 4.88614 19.6222 4.03799C19.6222 3.18983 18.9342 2.50171 18.0861 2.50171V2.50224ZM4.67769 10.8729C4.67769 7.24176 7.62129 4.29769 11.252 4.29755C14.8828 4.29755 17.8257 7.24167 17.8257 10.8729C17.8257 14.5042 14.8831 17.447 11.2522 17.447C7.62144 17.447 4.67769 14.5042 4.67769 10.8729Z" fill="white"/>
<path d="M11.2517 6.49512C13.6667 6.49512 15.6247 8.45285 15.6247 10.8681C15.6247 13.2831 13.6667 15.2411 11.2517 15.2411C8.83648 15.2411 6.87875 13.2831 6.87875 10.8681C6.87875 8.45285 8.83648 6.49512 11.2517 6.49512Z" fill="white"/>
</svg>
