<svg width="21" height="20" viewBox="0 0 21 20" fill="none" xmlns="http://www.w3.org/2000/svg">
<path d="M4.65303 6.46191H0.566284V19.7438H4.65303V6.46191Z" fill="white"/>
<path d="M5.67478 2.37421C5.64531 1.2147 4.6887 0.331543 3.1353 0.331543C1.5819 0.331543 0.566345 1.2147 0.566345 2.37421C0.566345 3.50971 1.55189 4.41829 3.07636 4.41829H3.10537C4.6887 4.41829 5.67478 3.50971 5.67478 2.37421Z" fill="white"/>
<path d="M20.9998 12.303C20.9998 8.31703 18.8535 6.46191 15.9906 6.46191C13.6807 6.46191 12.6465 7.72145 12.069 8.60505V6.76698H7.71786C7.77521 7.98466 7.71786 19.7438 7.71786 19.7438H12.069V12.4965C12.069 12.1087 12.0973 11.7218 12.2123 11.4441C12.5267 10.6693 13.2427 9.86708 14.4446 9.86708C16.0196 9.86708 16.6491 11.057 16.6491 12.8009V19.7435H20.9996L20.9998 12.303Z" fill="white"/>
</svg>
