<svg width="26" height="22" viewBox="0 0 26 22" fill="none" xmlns="http://www.w3.org/2000/svg">
<path d="M12.6342 5.87304L12.689 6.76732L11.7761 6.65781C8.45292 6.23805 5.54975 4.81452 3.08478 2.42371L1.87969 1.23743L1.56929 2.11345C0.911966 4.06625 1.33192 6.12855 2.70135 7.51558C3.4317 8.2821 3.26737 8.39161 2.0075 7.93534C1.56929 7.78934 1.18585 7.67984 1.14933 7.73459C1.02152 7.86234 1.45974 9.52313 1.80666 10.1801C2.28139 11.0927 3.24911 11.9869 4.30814 12.5162L5.20282 12.936L4.1438 12.9542C3.1213 12.9542 3.08478 12.9725 3.19434 13.3557C3.55952 14.542 5.00198 15.8013 6.60877 16.3488L7.74082 16.7321L6.75484 17.3161C5.29412 18.1556 3.57778 18.6301 1.86143 18.6666C1.03978 18.6849 0.364197 18.7579 0.364197 18.8126C0.364197 18.9951 2.59179 20.0171 3.88818 20.4187C7.77734 21.6049 12.3969 21.0939 15.8661 19.0681C18.331 17.6263 20.796 14.761 21.9463 11.9869C22.5671 10.5087 23.1879 7.80759 23.1879 6.51181C23.1879 5.67229 23.2427 5.56279 24.2652 4.55901C24.8677 3.975 25.4338 3.33623 25.5433 3.15373C25.7259 2.80697 25.7077 2.80697 24.7764 3.11723C23.2244 3.66474 23.0053 3.59174 23.7722 2.77047C24.3382 2.18645 25.0138 1.12793 25.0138 0.817669C25.0138 0.762918 24.7399 0.85417 24.4295 1.01842C24.1009 1.20093 23.3705 1.47469 22.8227 1.63894L21.8368 1.9492L20.9421 1.34693C20.4491 1.01842 19.7552 0.653415 19.39 0.543912C18.4588 0.288406 17.0346 0.324907 16.1947 0.616914C13.9124 1.43818 12.4699 3.55524 12.6342 5.87304Z" fill="white"/>
</svg>
