<svg width="77" height="54" viewBox="0 0 77 54" fill="none" xmlns="http://www.w3.org/2000/svg">
<path d="M42.7127 3.89289C42.0937 4.7048 41.7498 5.70229 41.7498 6.72298C41.7498 7.07094 41.7498 15.3061 41.7498 15.6076C41.7039 16.2803 41.4517 16.9067 41.039 17.4402C40.8098 17.6722 39.4571 18.9017 39.3424 19.0408L40.099 19.064C40.3512 18.8321 42.9649 16.4891 43.2171 16.1644C43.9737 15.3293 44.4093 14.239 44.4093 13.1023C44.4093 12.7311 44.4093 4.91358 44.4093 4.56561C44.3863 3.70731 44.7073 2.849 45.3034 2.22267C45.6244 1.87471 46.6332 1.0164 46.8166 0.807622L46.0141 0.784424C45.8537 0.993201 42.9878 3.61452 42.7127 3.89289Z" fill="#D72027"/>
<path d="M36.2702 36.2068L39.4571 39.0137H41.5893C43.6298 39.0137 45.6015 38.2018 47.0459 36.7404C48.3527 35.4181 48.8342 33.6319 48.8342 31.9617V27.3454C48.8112 26.3015 48.3756 25.304 47.5961 24.6081C47.4585 24.4689 46.5185 23.5642 46.5185 23.5642V27.1134C46.5185 27.1134 47.5502 28.1805 47.7337 28.3893C48.6737 29.41 48.6737 31.2658 45.6702 34.2119C45.1429 34.7222 43.6527 36.1604 41.5893 36.1604L36.2702 36.2068Z" fill="#D72027"/>
<path d="M45.1429 17.2546C44.799 17.6258 44.4551 18.5537 44.4551 19.3888V21.1286H46.1976C46.8854 21.1286 47.7795 20.5023 47.9629 20.1775C47.9629 20.1543 47.9629 18.4377 47.9629 18.4377C48.2151 18.8088 48.5361 19.1568 48.9029 19.4352C49.0863 19.2032 50.6912 17.2546 52.021 17.2314C54.2449 17.2082 53.7405 20.0615 52.8463 20.9662C52.5483 21.2678 51.2415 22.474 50.8288 22.8684C49.7742 23.8891 47.9629 23.4019 47.9629 20.7806C47.9629 20.7806 46.0371 22.6364 45.739 22.8916C45.441 23.1468 44.4551 24.2139 44.4551 24.2139V28.8302C44.4551 31.0339 43.7444 31.7762 43.1483 32.449C42.919 32.7041 40.4659 34.9775 40.122 35.2327L39.3195 35.2559C39.3195 35.2559 40.7639 33.9336 41.039 33.632C41.36 33.2841 41.7498 32.5881 41.7498 31.4283C41.7498 31.1267 41.7039 24.1907 41.7039 24.1907H30.5156C26.6181 24.1907 25.7927 19.8295 25.7698 18.6465C25.7698 18.2985 25.7698 14.8189 25.7698 14.2621C25.7698 13.543 25.3112 12.3367 24.6005 11.9656H25.701C25.8385 12.012 26.5263 12.2903 26.5263 14.9813C26.5263 14.9813 26.4805 18.0897 26.4805 18.2753C26.4805 19.6439 27.5581 21.1982 29.0942 21.1982L41.7498 21.175C41.7498 20.827 42.0937 19.528 42.7127 18.832C43.0566 18.4377 45.7849 15.9323 46.0829 15.6772H46.8854C46.7707 15.7932 45.441 16.9762 45.1659 17.301L45.1429 17.2546ZM49.2927 19.8759C49.6137 20.3167 49.9805 20.7574 50.3703 21.1518C51.7459 22.2653 52.3878 21.059 51.4707 19.8063C51.1039 19.296 49.7054 19.4352 49.2927 19.8759Z" fill="#D72027"/>
<path d="M35.72 28.1343C35.72 28.7606 33.7712 30.4076 33.6566 30.5004C33.519 29.8277 33.0146 29.1086 31.5703 27.6239L33.7024 25.4666C35.1468 26.928 35.72 27.2528 35.72 28.1343Z" fill="#D72027"/>
<path d="M39.4341 3.33615C39.8698 3.7769 40.7868 4.93678 40.2366 5.51672C39.7551 6.00386 38.9985 6.79258 38.9985 6.79258C38.9527 6.51421 38.242 5.81828 38.242 5.81828C38.242 5.81828 38.242 7.90606 38.242 8.16123C38.219 9.11233 37.8751 9.3675 37.8751 9.3675C37.8751 9.3675 39.5946 11.0841 39.5946 13.3111C39.5946 14.3782 39.5946 15.3756 39.5946 15.5844C39.6176 16.002 39.4571 16.4427 39.159 16.7443C38.9985 16.9299 37.4166 18.5537 37.1644 18.7625C36.7976 19.0872 36.339 19.2728 35.8576 19.2496H29.9195C28.9795 19.2496 28.0166 18.5073 28.0166 17.765C28.0166 17.5794 28.0395 15.538 28.0395 15.538C28.3376 15.886 28.6585 16.3035 29.3922 16.3035C29.9883 16.3035 30.5844 15.8396 30.7449 15.654C30.9054 15.4684 35.2385 10.9217 35.2385 10.9217C35.2385 10.9217 33.221 9.01954 31.8912 8.11484C31.2493 7.67408 30.378 8.23082 30.2405 8.81076C29.8278 10.6202 30.2405 13.3575 30.2405 13.3575L28.6127 11.7104C27.9478 11.0377 27.9707 9.52988 28.7732 8.74117C28.8878 8.60198 30.1029 7.25653 31.6161 7.25653H33.9776C35.5595 7.25653 37.302 8.85715 37.302 8.85715C37.4395 8.69477 37.5312 8.50919 37.5541 8.30041C37.5541 7.4653 37.5312 5.26154 37.5312 5.26154C36.339 4.05527 36.1785 2.80261 36.7517 2.22267C37.8293 1.13239 38.219 0.76123 38.219 0.76123C38.219 0.76123 38.1732 2.08349 39.4341 3.33615ZM31.9829 15.3988C31.3868 16.0252 31.2951 16.1644 30.7449 16.5123H37.4395C39.2507 16.5123 38.8839 15.3756 38.5629 14.7957C37.8981 13.6126 35.7888 11.4321 35.7888 11.4321C35.7888 11.4321 32.0976 15.2829 31.9829 15.3988Z" fill="#D72027"/>
<path d="M24.3483 21.5693H23.2478C23.2478 21.5693 24.4171 22.2189 24.4171 23.9123V29.3173C24.4171 32.8201 27.2829 36.0678 30.7678 36.0678H33.6795C35.4219 36.0678 36.041 35.6502 37.0956 34.6991C37.4854 34.3512 37.9898 33.7712 38.1732 33.5624C38.7693 32.8665 39.4341 32.3098 39.4341 30.5004V28.7374C39.4341 27.2063 38.5629 26.58 38.1273 26.1392C37.8522 25.8609 37.1185 25.1418 37.1185 25.1418V28.7606C37.1185 28.7606 37.8522 29.5493 38.1732 29.8044C39.6863 31.0107 38.4941 33.0985 37.0727 33.0985C36.7976 33.0985 31.0888 33.0985 30.6761 33.0985C28.3376 33.1449 25.1507 31.0339 25.1507 27.4615V24.5386C25.1737 21.5693 24.3483 21.5693 24.3483 21.5693Z" fill="#D72027"/>
<path d="M31.3639 28.1575C31.3639 28.7838 29.4151 30.4308 29.3005 30.5236C29.1629 29.8509 28.6585 29.1318 27.2141 27.6471L29.3463 25.4897C30.7678 26.928 31.3639 27.2528 31.3639 28.1575Z" fill="#D72027"/>
<path d="M9.01024 52.1666H5.57122C4.49366 52.1666 4.58537 51.2619 4.47073 50.4964V45.5322C4.47073 45.5322 5.22732 45.509 6.07561 45.509C7.01561 45.509 8.20781 45.3698 9.35415 46.0193C8.75805 44.7435 7.47415 43.9547 6.07561 44.0011H4.49366V42.4005C4.49366 42.4005 4.49366 41.0087 4.14976 40.6143H6.41951C8.36829 40.6143 9.88146 40.5911 11.4634 41.635C11.4634 41.635 11.1654 39.0137 7.38244 39.0137H0C0 39.0137 1.2839 40.1272 1.23805 42.3773L1.2839 51.4243C1.2839 53.6977 2.17805 53.7673 2.17805 53.7673H9.44585C11.0966 53.7673 11.6698 52.5842 11.6698 51.9347L11.6927 51.0764C11.6927 51.0764 11.1654 52.1666 9.01024 52.1666Z" fill="#D72027"/>
<path d="M28.3605 51.4013V45.0684C28.3605 42.6095 26.3888 41.96 24.8985 41.96C22.9498 41.96 22.3537 43.607 22.1015 44.1869C21.6659 42.6559 20.1298 41.96 18.8917 41.96C16.5302 41.96 15.9341 44.2333 15.9341 44.2333C15.9341 44.2333 15.8883 42.0296 13.9854 42.0296H12.1283C12.1283 42.0296 13.2059 42.4703 13.2059 44.3725V51.4013C13.2059 53.7211 14.1229 53.7675 14.1229 53.7675H17.1951C16.4615 53.2107 16.0259 52.3292 16.0259 51.3781V45.138C16.0717 44.8596 16.5302 43.9317 17.8371 43.9317C18.5937 43.9317 19.419 44.7205 19.3961 45.602V51.4013C19.3961 53.7443 20.3132 53.7675 20.3132 53.7675H23.3854C22.6517 53.1875 22.2161 52.3292 22.2161 51.3781V45.138C22.5141 44.2333 23.4771 43.723 24.3941 44.0245C25.082 44.2565 25.5634 44.8828 25.5863 45.6252C25.5863 45.6252 25.5863 50.9142 25.5863 51.4013C25.6093 53.7675 26.5034 53.7443 26.5034 53.7443C28.1083 53.7443 29.5756 53.7443 29.5756 53.7443C28.819 53.1875 28.3834 52.3292 28.3605 51.4013Z" fill="#D72027"/>
<path d="M33.7254 51.4013C33.7254 52.3292 34.161 53.2107 34.8946 53.7675C34.8946 53.7675 33.4273 53.7675 31.8225 53.7675C31.8225 53.7675 30.8825 53.7907 30.8825 51.4245V44.3493C30.8825 42.4935 29.8278 42.0063 29.8278 42.0063H31.6849C32.3498 42.0063 33.7025 42.0063 33.7025 44.6277V51.3549L33.7254 51.4013Z" fill="#D72027"/>
<path d="M43.1712 42.911C43.1712 42.911 42.8732 42.0759 41.6122 42.0759C39.6863 42.0759 39.2278 44.3957 39.2278 44.3957C39.0673 42.5631 38.5859 42.0295 37.2332 42.0295H35.3761C35.3761 42.0295 36.4537 42.4703 36.4537 44.3725V51.4013C36.4537 53.7211 37.3707 53.7675 37.3707 53.7675H40.4429C39.7093 53.2107 39.2737 52.3292 39.2737 51.4013V45.6252C39.3424 45.138 39.6176 44.6973 40.0302 44.4421C41.062 43.7462 42.4146 43.9549 43.2171 44.906L43.1712 42.911Z" fill="#D72027"/>
<path d="M57.4546 43.3286C58.0966 43.3286 58.7156 43.491 59.2659 43.7925V42.0295H56.6981V39.3386C56.1478 40.2201 55.4371 41.0088 54.6346 41.6816C53.7634 42.4007 51.9293 43.3054 51.9293 43.3054L53.8781 43.3286V51.4941C53.8781 53.7675 54.8181 53.7675 54.8181 53.7675C56.4917 53.7675 57.8673 53.7675 57.8673 53.7675C57.1337 53.2339 56.6981 52.3756 56.6751 51.4709V43.3286C57.5005 43.3286 56.9503 43.3286 57.4546 43.3286Z" fill="#D72027"/>
<path d="M66.7629 46.8777C65.0434 48.6871 63.6907 48.4088 62.6132 49.7542C62.6132 49.7542 62.7966 51.5636 64.1493 52.1899C64.6078 52.3987 66.5107 53.0946 67.7259 50.9605V52.8627C67.7259 52.8627 66.9463 53.7906 64.4473 53.7906C61.4439 53.7906 59.3805 51.4012 59.3805 48.1536C59.3805 44.9523 61.0542 42.0062 64.241 41.983C67.3361 41.9367 69.0327 44.4884 66.7629 46.8777ZM64.8829 46.1354C65.3873 45.1843 65.8 42.7718 64.0576 42.9109C62.04 43.0733 62.4298 48.4783 62.4298 48.4783C63.0946 47.736 64.1034 47.5736 64.8829 46.1354Z" fill="#D72027"/>
<path d="M32.3039 41.0784C33.0834 41.0552 33.6795 40.4057 33.6795 39.6401C33.6566 38.8514 33.0146 38.2483 32.2581 38.2483C31.5015 38.2715 30.8824 38.8978 30.8824 39.6633C30.8824 40.4521 31.5244 41.0784 32.3039 41.0784Z" fill="#D72027"/>
<path d="M46.358 52.422C45.6702 52.422 45.1659 51.6797 45.1659 50.9374C45.1659 48.0145 47.5273 47.597 48.1693 46.8315V51.7725C47.8712 52.0045 47.5961 52.422 46.358 52.422ZM48.1693 45.6948C47.4585 46.9474 41.9102 47.2258 42.7585 51.5637C43.1024 53.2804 44.2259 53.7907 45.6473 53.7907C47.0229 53.7907 47.8712 53.0716 48.2151 52.3757C48.4215 53.6747 49.0863 53.7675 49.0863 53.7675C50.6912 53.7675 52.1585 53.7675 52.1585 53.7675C51.4249 53.2108 50.9663 52.3525 50.9663 51.4246V44.8133C50.9663 43.2358 49.2468 42.0064 47.4127 42.0064C46.381 41.9832 45.3951 42.2847 44.5468 42.8647V44.9061C44.5468 44.9061 45.1888 43.2822 46.7707 43.2822C48.3298 43.2822 48.4444 44.071 48.4444 44.4653C48.4673 44.8829 48.3985 45.3236 48.1693 45.6948Z" fill="#D72027"/>
<path d="M73.5493 50.5662C73.5722 51.4013 72.8385 52.4916 71.2795 52.4916C69.6746 52.4916 69.0327 50.8446 69.0327 50.8446V52.9324C69.9039 53.4891 70.9127 53.7675 71.9444 53.7675C74.0307 53.7675 76.1629 52.1669 76.1171 49.9167C76.0942 49.1744 75.842 48.4553 75.4063 47.8753C74.6956 46.9242 73.4117 46.2515 72.4029 45.6252C71.8298 45.2772 71.5317 44.6277 71.5317 44.4189C71.5088 44.0245 71.7151 43.2358 73.2512 43.2358C74.7644 43.2358 75.4293 44.8596 75.4293 44.8596V42.8879C74.581 42.2847 73.5493 41.96 72.4946 41.96C70.6605 41.96 68.9868 43.1894 69.0327 44.7669C69.0556 46.1587 69.6288 47.0402 70.7522 47.8985C71.2566 48.2697 71.7839 48.5944 72.3342 48.896C73.2054 49.3832 73.5263 49.9863 73.5493 50.5662Z" fill="#D72027"/>
</svg>
