<svg width="108" height="47" viewBox="0 0 108 47" fill="none" xmlns="http://www.w3.org/2000/svg">
<g clip-path="url(#clip0_446_16323)">
<path d="M52.1226 1.4752C52.7945 2.55575 53.6412 3.51628 54.6281 4.31725H55.1725C54.9277 3.01276 54.9652 1.67069 55.2827 0.382057H43.8424V0.92891C44.9318 1.4752 45.0949 2.29519 45.0949 3.60673V10.6024C45.0949 11.9145 44.9296 12.7339 43.8424 13.2808V13.8271H55.2799C54.9625 12.5384 54.9249 11.1964 55.1697 9.89187H54.6253C53.6385 10.6928 52.7917 11.6534 52.1198 12.7339H48.9063V1.4752H52.1226ZM18.7914 37.7097L20.3706 41.8085H17.3736L18.7914 37.7097ZM69.3877 33.7198C70.4771 34.2666 70.6402 35.086 70.6402 36.3981V41.7538L64.758 33.1735H59.9091L61.5974 35.6329V43.3932C61.5974 44.7048 61.4321 45.5248 60.3449 46.0711V46.6179H64.4842V46.0711C63.3948 45.5248 63.2312 44.7595 63.2312 43.3932V37.8733L69.1679 46.6179H72.2723V36.3981C72.2723 35.0318 72.4376 34.2666 73.5253 33.7198V33.1735H69.3861L69.3877 33.7198ZM53.8109 7.10456C53.6074 6.89131 53.3619 6.72288 53.09 6.60998C52.8182 6.49708 52.5259 6.44219 52.2317 6.44878H52.0124C52.221 6.27317 52.3915 6.05643 52.5132 5.81198C52.6349 5.56754 52.7052 5.30062 52.7199 5.02776C51.6311 5.02776 50.1059 6.06616 49.9967 7.10456C50.107 8.14296 51.6311 9.18136 52.7199 9.18136C52.6706 8.60775 52.3965 8.0772 51.9578 7.70614H52.23C52.8104 7.69727 53.3692 7.48438 53.8093 7.10456M10.4566 25.741C10.8919 25.741 11.1101 25.3584 11.1101 24.8668C10.6124 24.5886 10.1951 24.1855 9.89914 23.6969C9.60319 23.2083 9.43872 22.651 9.42182 22.0795L8.71375 22.4616C8.70695 22.9179 8.72535 23.3742 8.76886 23.8284C8.76886 24.5931 9.58602 25.741 10.4577 25.741M8.6603 26.8341C8.84402 26.8217 9.01701 26.7429 9.14721 26.6122C9.27741 26.4816 9.35598 26.308 9.36837 26.1236C9.36635 25.6594 9.29198 25.1985 9.14796 24.7573L9.42071 22.0795C9.43414 21.9706 9.4245 21.8601 9.39242 21.7552C9.36034 21.6503 9.30654 21.5534 9.23454 21.4708C9.16255 21.3883 9.07398 21.3219 8.97464 21.276C8.8753 21.2302 8.76744 21.2059 8.6581 21.2048C8.27679 21.2048 7.95004 21.4779 7.95004 22.0795L8.17045 24.7573C8.02645 25.1985 7.95208 25.6595 7.95004 26.1236C7.9533 26.311 8.02894 26.4899 8.16103 26.6224C8.29312 26.755 8.47133 26.8309 8.6581 26.8341M6.86233 25.741C7.73349 25.741 8.6052 24.5931 8.6052 23.8284C8.6487 23.3742 8.66709 22.9179 8.6603 22.4616L7.95224 22.0795C7.9388 22.6585 7.76976 23.2232 7.46299 23.7138C7.15621 24.2044 6.72309 24.6028 6.20937 24.8668C6.20937 25.3584 6.42977 25.741 6.86288 25.741M55.1174 14.9202L54.627 17.4891H56.0976L57.6223 14.9202H55.1174ZM60.9995 23.5005C60.9995 18.6348 58.2764 16.396 53.9189 16.396C49.5615 16.396 46.8388 18.9101 46.8388 23.5005C46.8388 28.0909 49.5625 30.6057 53.9189 30.6057C58.2753 30.6057 60.9995 28.0915 60.9995 23.5005ZM78.7 37.7108L80.2797 41.8097H77.2838L78.7 37.7108ZM52.667 45.9085C50.6514 45.9085 50.0524 43.558 50.0524 39.8965C50.0524 36.235 50.6514 33.8845 52.667 33.8845C54.6826 33.8845 55.281 36.2345 55.281 39.8965C55.281 43.5586 54.6821 45.9085 52.667 45.9085ZM97.8711 42.6838C96.8842 43.4848 96.0374 44.4453 95.3656 45.5259H92.1526V36.3981C92.1526 35.0318 92.3179 34.2666 93.405 33.7198V33.1735H87.0865V33.7198C88.1759 34.2666 88.3389 35.086 88.3389 36.3981V43.9401C88.392 44.377 88.2975 44.8191 88.0704 45.1957C87.8433 45.5722 87.4968 45.8614 87.0865 46.0169C86.7102 45.9338 86.3618 45.7541 86.0755 45.4954C85.7891 45.2367 85.5745 44.9079 85.4527 44.5411L81.0407 33.174H78.4812L74.5596 44.5406C74.1783 45.6337 73.6339 46.0711 73.0889 46.0711V46.6179H77.0651V46.0711C76.5201 46.0711 75.9212 45.6337 76.3025 44.5406L76.7383 43.2837H80.8776L81.3675 44.5406C81.6402 45.1969 81.3124 46.0711 80.6054 46.0711V46.6179H98.5235C98.2058 45.3293 98.1683 43.9872 98.4133 42.6827L97.8711 42.6838ZM38.8865 33.7198C39.9759 34.2666 40.1395 35.086 40.1395 36.3981V43.3938C40.1395 44.7053 39.9742 45.5253 38.8865 46.0716V46.6185H45.2045V46.0716C44.1152 45.5253 43.9521 44.7601 43.9521 43.3938V36.3981C43.9521 35.0318 44.1174 34.2666 45.2045 33.7198V33.1735H38.8865V33.7198ZM18.5715 33.1735L14.6532 44.5406C14.2719 45.6337 13.7269 46.0711 13.1825 46.0711V46.6179H17.1581V46.0711C16.6137 46.0711 16.0148 45.6337 16.3961 44.5406L16.8314 43.2837H20.9679L21.4583 44.5406C21.7305 45.1969 21.4032 46.0711 20.6957 46.0711V46.6179H26.9591V46.0711C26.6209 45.9437 26.3169 45.7391 26.0711 45.4735C25.8253 45.2078 25.6445 44.8884 25.543 44.5406L21.1315 33.1735H18.5715ZM9.47361 33.7198C10.563 34.2666 10.7266 35.086 10.7266 36.3981V41.7538L4.84504 33.1735H-0.00394058L1.68439 35.6329V43.3932C1.68439 44.7048 1.51908 45.5248 0.431366 46.0711V46.6179H4.57063V46.0711C3.48182 45.5248 3.31816 44.7595 3.31816 43.3932V37.8733L9.25871 46.6179H12.3632V36.3981C12.3632 35.0318 12.5285 34.2666 13.6162 33.7198V33.1735H9.47361V33.7198ZM52.7717 32.7908C48.4148 32.7908 45.5825 35.305 45.5825 39.8954C45.5825 44.4858 48.3057 47 52.6626 47C57.0195 47 59.7427 44.4864 59.7427 39.8954C59.7427 35.3044 57.1286 32.7908 52.7711 32.7908M33.3278 32.7908C28.7544 32.7908 26.2478 35.305 26.2478 39.8954C26.2478 44.4858 28.7533 47 33.3278 47C34.6902 47.0078 36.041 46.748 37.304 46.2353C37.0462 44.9392 37.0089 43.6087 37.1938 42.3001H36.1044C35.7777 43.5569 34.852 45.9074 33.3267 45.9074C31.4748 45.9074 30.7127 43.5569 30.7127 39.8954C30.7127 36.2339 31.4748 33.8834 33.3267 33.8834C34.852 33.8834 35.7777 36.2334 36.1044 37.4907H37.1938C37.0089 36.1822 37.0462 34.8516 37.304 33.5555C36.0411 33.0426 34.6903 32.7826 33.3278 32.7903M66.8773 17.8706C68.6201 17.8706 69.5459 19.2369 69.5459 20.7669C69.5459 22.2968 68.6201 23.6637 66.8773 23.6637H66.6051V17.8712L66.8773 17.8706ZM100.917 29.5109C98.9015 29.5109 98.3025 27.1609 98.3025 23.4989C98.3025 19.8368 98.9015 17.4874 100.917 17.4874C102.932 17.4874 103.531 19.8374 103.531 23.4989C103.531 27.1604 102.932 29.5109 100.917 29.5109ZM56.5308 23.5C56.5308 27.162 55.9312 29.512 53.9162 29.512C51.9011 29.512 51.3021 27.162 51.3021 23.5C51.3021 19.8379 51.9011 17.4886 53.9162 17.4886C55.9312 17.4886 56.5308 19.8385 56.5308 23.5ZM61.5412 17.3243C62.6305 17.8712 62.7942 18.6906 62.7942 20.0022V26.9978C62.7942 28.3094 62.6289 29.1288 61.5412 29.6756V30.2219H67.8592V29.6756C66.7698 29.1288 66.6067 28.3641 66.6067 26.9978V24.7568H67.2057L70.4738 30.2219H81.3118V29.6756C80.2224 29.1288 80.0588 28.3094 80.0588 26.9978V20.0022C80.0588 18.6359 80.2241 17.8712 81.3118 17.3243V16.778H74.9954V17.3243C76.0848 17.8712 76.2479 18.6359 76.2479 20.0022V27.3257C76.2479 28.6372 76.0275 29.1835 75.104 29.6756C74.3959 29.4545 73.797 28.9104 73.0344 27.7078L71.0193 24.5384C71.8797 24.2046 72.5988 23.5828 73.0549 22.7782C73.511 21.9736 73.6762 21.0356 73.5225 20.1229C73.3688 19.2101 72.9056 18.3787 72.2113 17.7692C71.517 17.1597 70.6342 16.8096 69.7123 16.778H61.545L61.5412 17.3243ZM44.9301 17.8712C45.2364 18.4539 45.711 18.9301 46.2917 19.2375C46.7467 18.2764 47.4178 17.4345 48.2522 16.778H35.7821C36.0296 18.0962 36.0296 19.4492 35.7821 20.7674H36.4901C37.6886 19.8932 38.6689 18.8001 38.9411 17.8712H39.8668V26.9978C39.8668 28.3094 39.7015 29.1288 38.6143 29.6756V30.2219H44.9318V29.6756C43.8424 29.1288 43.6788 28.3094 43.6788 26.9978V17.8712H44.9301ZM24.2338 29.6756C23.1444 29.1288 22.9813 28.3094 22.9813 26.9978V20.0022C22.9813 18.6359 23.1466 17.8712 24.2338 17.3243V16.778H17.918V17.3243C19.0074 17.8712 19.171 18.6906 19.171 20.0022V26.9978C19.171 28.3094 19.0057 29.1288 17.918 29.6756V30.2219H24.236L24.2338 29.6756ZM6.69647 29.6756C5.6071 29.1288 5.444 28.3094 5.444 26.9978V23.3358L8.00404 24.2099L9.42016 23.5542L11.8711 22.9531V26.9978C11.8711 28.3094 11.7058 29.1288 10.6181 29.6756V30.2219H16.8832V29.6756C15.7938 29.1288 15.6307 28.3094 15.6307 26.9978V20.0022C15.6307 18.6359 15.796 17.8712 16.8832 17.3243V16.778H10.6197V17.3243C11.7091 17.8712 11.8728 18.6906 11.8728 20.0022V22.1337L9.42182 22.7353L8.00569 22.4616L5.44565 21.5874V20.0022C5.44565 18.6359 5.61096 17.8712 6.69812 17.3243V16.778H0.436877V17.3243C1.52624 17.8712 1.6899 18.6906 1.6899 20.0022V26.9978C1.6899 28.3094 1.52459 29.1288 0.436877 29.6756V30.2219H6.69867L6.69647 29.6756ZM100.92 16.3965C96.5629 16.3965 93.8398 18.9107 93.8398 23.5011C93.8398 28.0915 96.5629 30.6062 100.92 30.6062C105.277 30.6062 108 28.0921 108 23.5011C108 18.9101 105.277 16.3965 100.92 16.3965ZM88.993 16.3965C84.4195 16.3965 81.9124 18.9107 81.9124 23.5011C81.9124 28.0915 84.4179 30.6062 88.993 30.6062C90.3553 30.6141 91.7059 30.3541 92.9686 29.841C92.711 28.545 92.6738 27.2147 92.8584 25.9063H91.7691C91.4423 27.1631 90.516 29.5131 88.9914 29.5131C87.1394 29.5131 86.3768 27.1631 86.3768 23.5011C86.3768 19.8391 87.1394 17.4897 88.9914 17.4897C90.516 17.4897 91.4423 19.8396 91.7691 21.0964H92.8584C92.6738 19.788 92.711 18.4577 92.9686 17.1618C91.7059 16.6486 90.3553 16.3886 88.993 16.3965ZM29.2464 30.6068C33.4948 30.6068 35.4553 29.2405 35.4553 26.7263C35.4553 21.8053 28.0485 21.5343 28.0485 19.1296C28.0485 18.2549 28.8657 17.1623 30.7176 17.1623L33.3879 21.0964H34.4773C34.2926 19.788 34.3299 18.4577 34.5875 17.1618C33.3248 16.6486 31.9742 16.3886 30.6119 16.3965C26.5811 16.3965 25.0565 18.2002 25.0565 20.058C25.0565 25.1958 32.1911 25.5779 32.1911 27.8731C32.1911 28.8567 30.9386 29.8404 29.1412 29.8404L26.4687 25.9069H25.3794C25.5479 27.0362 25.4917 28.1878 25.2141 29.2952C26.3888 30.1427 27.7979 30.6012 29.2448 30.6068M63.0664 1.09478C65.0815 1.09478 65.6804 3.44528 65.6804 7.10677C65.6804 10.7683 65.0815 13.1188 63.0664 13.1188C61.0513 13.1188 60.4518 10.7688 60.4518 7.10677C60.4518 3.44473 61.0513 1.09478 63.0664 1.09478ZM20.1513 9.45451C20.1513 12.8429 22.9835 14.2097 26.3056 14.2097C28.9202 14.2097 30.9893 12.7339 30.9893 9.34392V3.60673C30.9893 2.24045 31.1546 1.4752 32.2418 0.92891V0.382057H28.1025V0.92891C29.1919 1.4752 29.355 2.29519 29.355 3.60673V9.34557C29.355 11.9687 28.1571 13.1165 26.2505 13.1165C24.1263 13.1165 23.9632 12.0781 23.9632 9.45505V3.60673C23.9632 2.24045 24.1286 1.4752 25.2157 0.92891V0.382057H18.8961V0.92891C19.9854 1.4752 20.1491 2.29519 20.1491 3.60673L20.1513 9.45451ZM4.57449 13.2802C3.48567 12.7334 3.26747 11.9681 3.32202 10.6018L3.48733 5.02721L7.78969 13.3344H8.33465L12.7979 4.1005L13.0183 10.604C13.0734 11.9161 12.853 12.7356 11.7659 13.2824V13.8287H18.0816V13.2824C16.9923 12.7356 16.8832 12.0251 16.8286 10.604L16.6082 3.6084C16.5531 2.29685 16.7735 1.47686 17.8607 0.930564V0.383719H12.7985L8.98596 7.48885L5.3911 0.383719H0.652326V0.930564C1.74169 1.47686 1.95935 2.29685 1.90479 3.6084L1.68439 10.604C1.62929 11.9161 1.51908 12.7356 0.431366 13.2824V13.8287H4.57063L4.57449 13.2802ZM63.0681 14.2091C67.425 14.2091 70.1481 11.695 70.1481 7.10456C70.1481 2.51415 67.4244 -1.35211e-05 63.0681 -1.35211e-05C58.7117 -1.35211e-05 55.988 2.5136 55.988 7.10456C55.988 11.6955 58.7111 14.2091 63.0681 14.2091ZM37.525 14.2091C41.6097 14.1538 43.4071 12.7881 43.4071 10.3287C43.4071 5.40763 36.0003 5.13669 36.0003 2.732C36.0003 1.85727 36.8174 0.764135 38.6694 0.764135L41.338 4.69933H42.4246C42.2398 3.39076 42.277 2.06022 42.5348 0.764135C41.2718 0.251418 39.9211 -0.00836006 38.5587 -0.000561927C34.5285 -0.000561927 33.0033 1.80253 33.0033 3.66093C33.0033 8.79818 40.1379 9.1808 40.1379 11.476C40.1379 12.4597 38.8849 13.4433 37.0874 13.4433L34.4189 9.50814H33.3328C33.5015 10.6376 33.4454 11.7895 33.1675 12.897C34.4351 13.8065 35.9678 14.2678 37.525 14.2086" fill="black"/>
</g>
<defs>
<clipPath id="clip0_446_16323">
<rect width="108" height="47" fill="white"/>
</clipPath>
</defs>
</svg>
